<svg width="18" height="14" viewBox="0 0 18 14" fill="none" xmlns="http://www.w3.org/2000/svg">
<path d="M14.6845 0C13.3804 0.793951 13.2718 1.63091 12.577 2.94423C13.0389 3.10964 13.4658 3.29159 13.8578 3.48677C15.1658 2.40832 14.0131 1.36957 14.6845 0ZM2.65202 0.430057C2.40557 1.79631 3.37082 2.62996 4.32171 3.38422C5.05914 3.97306 5.78104 4.52552 6.09154 5.18715C6.19245 4.94565 6.31665 4.71077 6.46025 4.48913C6.24679 3.17911 5.43174 2.58365 4.60116 2.05435C3.85597 1.58129 3.11078 1.15454 2.65202 0.430057ZM6.57669 2.71928C6.50295 2.71928 6.42532 2.72259 6.35158 2.72259C6.74746 3.19234 7.03855 3.79112 7.1317 4.62476C7.13558 4.67769 7.12394 4.73062 7.09677 4.77694C6.92212 5.13091 5.02809 9.319 12.4645 9.41493C12.5033 9.41162 12.5382 9.40832 12.577 9.40501C19.2139 8.71361 16.0701 2.67297 6.57669 2.71928ZM17.9758 2.81853C16.8192 3.69518 15.6936 2.888 14.6302 3.91682C15.0649 4.1914 15.4375 4.48251 15.748 4.78025C16.6173 4.16163 17.5061 4.00614 17.9758 2.81853ZM2.97882 3.00709C2.14203 3.1328 1.26915 3.30151 0.36328 3.51654C0.780121 3.72164 1.21016 3.73157 1.68871 3.7448C2.50958 3.76465 3.46009 3.77127 4.68266 4.4362C4.24409 4.05907 3.72789 3.69187 3.26991 3.28166C3.169 3.19234 3.07197 3.09972 2.97882 3.00709ZM0.277117 4.09877C0.4541 4.46267 0.669118 4.74386 0.915574 4.96881C1.51289 5.50803 2.28486 5.6966 3.07585 5.85208C4.00346 6.03403 4.95823 6.17297 5.76552 6.62949C5.7694 6.41777 5.79657 6.20274 5.83926 5.99433C3.98017 4.33034 2.71179 4.32042 1.6693 4.29395C1.16863 4.28072 0.715305 4.26087 0.277117 4.09877ZM17.9991 4.83979C17.5488 5.29631 16.9278 5.25992 16.2642 5.35917C16.3379 5.45841 16.4078 5.55766 16.4699 5.6569C16.6329 5.92817 16.7532 6.19943 16.8269 6.46739C18.0767 5.9414 17.9991 4.83979 17.9991 4.83979ZM0.142828 5.03166L0.125751 7.57892C0.989317 7.66824 1.70152 7.3275 2.44787 7.0397C2.95553 6.84452 3.47949 6.66257 4.05391 6.60633C3.6852 6.52363 3.30484 6.46077 2.93224 6.388C2.01628 6.20936 1.13525 5.97117 0.444397 5.34594C0.339605 5.25 0.238694 5.14745 0.142828 5.03166ZM14.8514 6.12004C15.0843 6.11673 15.29 6.20605 15.3754 6.36153C15.4957 6.58979 15.3171 6.88091 14.9756 7.00992C14.6302 7.13563 14.2537 7.05624 14.1295 6.82798C14.0053 6.59972 14.1838 6.3086 14.5293 6.17958C14.6341 6.13989 14.7466 6.12004 14.8514 6.12004ZM9.62731 6.38469C9.75151 6.38469 9.87959 6.40784 10.0077 6.45416C10.4113 6.60633 10.6209 6.94376 10.4734 7.21172C10.3298 7.47968 9.88735 7.57561 9.48371 7.42675C9.08006 7.27457 8.87048 6.93715 9.01796 6.66919C9.11499 6.48393 9.35563 6.38138 9.62731 6.38469ZM4.41874 7.14887C3.78999 7.14887 3.24274 7.33743 2.71412 7.54253C1.87462 7.86342 1.06811 8.21408 0.107509 8.13138C0.691241 8.48866 1.48727 8.58459 2.29418 8.56805C3.84433 8.53497 5.45502 8.06191 5.9751 7.8965C5.92077 7.75095 5.87807 7.60539 5.84314 7.45652C5.3153 7.23157 4.84956 7.14556 4.41874 7.14887ZM4.0345 8.94187C3.48726 9.03781 2.89421 9.10728 2.31009 9.12051C2.01085 9.12713 1.71394 9.1172 1.42634 9.08743C0.274789 10.4338 1.27847 11.4527 0 12.8422L1.30913 12.776L1.6235 14L3.28931 13.0076H4.92718L4.12377 12.1474C4.69043 10.6588 5.79269 10.0336 7.16275 9.76229C6.84061 9.45132 6.02556 8.99149 4.0345 8.94187ZM15.3715 9.57042L11.8745 10.6423L13.5202 11.4031L12.7206 12.25L14.4012 12.2169L16.6445 13.1829L16.4776 12.3989C16.4776 12.3989 17.3392 12.6536 17.7041 12.2004C15.9886 11.6744 16.3612 10.7283 15.3715 9.57042Z" fill="#EFEFEF"/>
</svg>
