<svg width="39" height="39" viewBox="0 0 39 39" fill="none" xmlns="http://www.w3.org/2000/svg">
<path d="M39 13C39 12.5531 38.6344 12.1875 38.1875 12.1875H27.625C27.1781 12.1875 26.8125 11.8219 26.8125 11.375V0.8125C26.8125 0.365625 26.4469 0 26 0H13C12.5531 0 12.1875 0.365625 12.1875 0.8125V11.375C12.1875 11.8219 11.8219 12.1875 11.375 12.1875H0.8125C0.365625 12.1875 0 12.5531 0 13V26C0 26.4469 0.365625 26.8125 0.8125 26.8125H11.375C11.8219 26.8125 12.1875 27.1781 12.1875 27.625V38.1875C12.1875 38.6344 12.5531 39 13 39H26C26.4469 39 26.8125 38.6344 26.8125 38.1875V27.625C26.8125 27.1781 27.1781 26.8125 27.625 26.8125H38.1875C38.6344 26.8125 39 26.4469 39 26V13Z" fill="#89C28C"/>
</svg>
