<svg width="35" height="39" viewBox="0 0 35 39" fill="none" xmlns="http://www.w3.org/2000/svg">
<path d="M19.6691 2.60227e-07H15.359C14.513 -0.000280356 13.6826 0.226397 12.956 0.656008C12.2293 1.08562 11.6334 1.70216 11.2314 2.44028V16.8579H23.8893V2.6477C23.5102 1.85592 22.9126 1.18692 22.1656 0.71829C21.4186 0.249658 20.553 0.000599028 19.6691 2.60227e-07ZM20.6097 12.3476H19.2479V13.6979C19.2479 14.152 19.066 14.5875 18.7421 14.9086C18.4183 15.2297 17.979 15.4101 17.5211 15.4101C17.0631 15.4101 16.6238 15.2297 16.3 14.9086C15.9762 14.5875 15.7942 14.152 15.7942 13.6979V12.3476H14.4324C13.5058 12.3476 12.7505 11.6265 12.7084 10.7175C12.7246 10.2735 12.9129 9.85281 13.234 9.54297C13.5551 9.23312 13.9844 9.05797 14.4324 9.05397H15.7942V7.67583C15.7942 6.70834 16.5664 5.9274 17.5211 5.9274C18.4757 5.9274 19.2479 6.70834 19.2479 7.67583V9.05397H20.6097C21.5363 9.05397 22.2916 9.8029 22.3351 10.7175C22.3139 11.157 22.1228 11.5715 21.8015 11.875C21.4802 12.1785 21.0535 12.3477 20.6097 12.3476ZM31.9956 16.8579H25.2932V2.96648C29.1456 4.03141 31.9844 7.60205 31.9956 11.8367V16.8579ZM9.82752 16.8579V2.93725C5.91336 3.96459 3.03249 7.56307 3.03249 11.8367V16.8551L9.82752 16.8579ZM2.93422 18.1803H32.0658C33.6943 18.1803 35 19.4749 35 21.0897C35 22.6906 33.6803 23.9991 32.0658 23.9991H29.2748V26.4909C29.2748 29.1191 28.3987 31.5441 26.919 33.4958C27.1001 34.118 26.9442 34.8168 26.4515 35.3082C25.2813 36.4797 23.8883 37.4093 22.3532 38.043C20.818 38.6767 19.1713 39.002 17.5084 39C15.847 38.9985 14.2022 38.6722 12.6681 38.0397C11.134 37.4072 9.74079 36.4809 8.56819 35.3138C8.33302 35.0801 8.16515 34.7883 8.08196 34.4687C7.99877 34.149 8.0033 33.8131 8.09507 33.4958C6.56282 31.4768 5.73581 29.0177 5.73927 26.4909V23.9991H2.93422C1.3197 23.9991 0 22.6906 0 21.0897C0 19.4889 1.3197 18.1803 2.93422 18.1803ZM27.2475 26.4909V23.9991H7.76655V26.4909C7.76655 28.618 8.46009 30.5836 9.63518 32.1789C10.1911 32.1051 10.7724 32.2805 11.1992 32.7037C12.0257 33.5284 13.0085 34.1831 14.091 34.63C15.1735 35.077 16.3344 35.3075 17.507 35.3082C19.9695 35.3082 22.1947 34.3199 23.8107 32.7079C24.2361 32.2819 24.8215 32.1051 25.3789 32.1789C26.596 30.5283 27.2501 28.5356 27.2461 26.4909" fill="#4A9B98"/>
</svg>
