<svg width="31" height="39" viewBox="0 0 31 39" fill="none" xmlns="http://www.w3.org/2000/svg">
<path d="M16.7108 0.61349C16.5715 0.423355 16.3894 0.268724 16.1792 0.162135C15.9689 0.0555463 15.7365 0 15.5008 0C15.2651 0 15.0327 0.0555463 14.8225 0.162135C14.6123 0.268724 14.4301 0.423355 14.2908 0.61349L3.29084 15.6135C3.12662 15.837 3.02762 16.1018 3.00482 16.3782C2.98203 16.6547 3.03633 16.932 3.16171 17.1795C3.28709 17.4269 3.47863 17.6347 3.71503 17.7799C3.95144 17.925 4.22345 18.0017 4.50084 18.0015H7.63884L0.26684 28.6475C0.110944 28.8726 0.019641 29.1361 0.00283 29.4094C-0.013981 29.6827 0.044341 29.9554 0.171474 30.1979C0.298607 30.4404 0.4897 30.6435 0.724038 30.7852C0.958375 30.9268 1.22702 31.0016 1.50084 31.0015H14.0008V37.5015C14.0008 37.8993 14.1589 38.2808 14.4402 38.5622C14.7215 38.8435 15.103 39.0015 15.5008 39.0015C15.8987 39.0015 16.2802 38.8435 16.5615 38.5622C16.8428 38.2808 17.0008 37.8993 17.0008 37.5015V31.0015H29.5008C29.7747 31.0016 30.0433 30.9268 30.2776 30.7852C30.512 30.6435 30.7031 30.4404 30.8302 30.1979C30.9573 29.9554 31.0157 29.6827 30.9988 29.4094C30.982 29.1361 30.8907 28.8726 30.7348 28.6475L23.3608 18.0015H26.5008C26.7782 18.0017 27.0502 17.925 27.2867 17.7799C27.5231 17.6347 27.7146 17.4269 27.84 17.1795C27.9653 16.932 28.0197 16.6547 27.9969 16.3782C27.9741 16.1018 27.8751 15.837 27.7108 15.6135L16.7108 0.61349Z" fill="#587542"/>
</svg>
