<svg width="208" height="47" viewBox="0 0 208 47" fill="none" xmlns="http://www.w3.org/2000/svg">
<path d="M9.6877 12.1512C9.58719 12.8811 9.53424 13.6169 9.52918 14.3537C9.5419 18.2028 10.6503 21.9685 12.7246 25.2096C13.2232 26.0029 13.7737 26.7624 14.3723 27.4831L14.4328 27.529C16.9065 30.7629 20.8068 33.0948 24.9491 33.0948C31.8988 33.0948 37.6221 27.1491 38.3459 19.6919C38.3603 19.5293 38.3323 19.3657 38.2648 19.2171C38.1973 19.0685 38.0925 18.9399 37.9607 18.8439C37.8288 18.7478 37.6743 18.6876 37.5123 18.669C37.3503 18.6504 37.1862 18.6741 37.036 18.7378C27.3832 22.8798 19.5679 20.408 19.5679 20.408C11.9132 17.1407 19.3802 8.63345 23.2638 4.85475C24.1893 3.95113 25.2843 3.23968 26.4856 2.76136C27.6869 2.28304 28.9709 2.04729 30.2636 2.0677C32.5183 2.10737 35.3049 2.59588 38.421 4.46645C37.401 5.72698 36.1202 6.7512 34.6666 7.46853C34.5681 7.51704 34.4811 7.58598 34.4112 7.67077C34.3414 7.75555 34.2904 7.85424 34.2616 7.96028C34.2328 8.06631 34.2268 8.17727 34.2442 8.28577C34.2615 8.39428 34.3017 8.49785 34.3621 8.58961C35.3487 10.1053 36.865 10.3099 37.9079 10.2389C37.9684 10.2389 38.0268 10.2389 38.0852 10.2201L38.0977 10.3161C37.977 10.3293 37.8603 10.3676 37.7552 10.4286C37.6502 10.4895 37.559 10.5717 37.4875 10.67C37.416 10.7683 37.3658 10.8804 37.3402 10.9992C37.3145 11.118 37.3139 11.2409 37.3385 11.36C37.3838 11.5505 37.4503 11.7354 37.5366 11.9111C38.4648 13.8109 41.049 13.9988 42.4799 12.3579C43.4435 11.2577 43.7542 9.87354 43.8523 8.98836C45.0329 10.2722 46.1281 11.6321 47.1311 13.0593C49.4817 16.3787 50.1804 21.1178 50.1804 24.3683C50.1804 39.1219 39.8602 46.6752 28.2092 46.6752C21.6244 46.6752 15.6592 43.886 11.3417 39.3683C6.82647 34.6185 4.32192 28.3045 4.35236 21.7483C4.34945 18.7592 4.86534 15.7923 5.87704 12.98C7.02057 9.79904 8.79415 6.882 11.0914 4.40381C11.131 4.36053 11.1844 4.33228 11.2424 4.32384C11.3005 4.3154 11.3596 4.32729 11.4099 4.35749C11.4602 4.3877 11.4986 4.43436 11.5184 4.48959C11.5383 4.54483 11.5385 4.60524 11.519 4.6606C10.9871 6.24306 10.0506 9.28899 9.6877 12.1512ZM44.2611 13.7274C44.2753 13.6916 44.278 13.6522 44.2688 13.6148C44.2597 13.5774 44.2391 13.5437 44.21 13.5185C44.1809 13.4933 44.1447 13.4777 44.1064 13.474C44.0681 13.4703 44.0296 13.4786 43.9962 13.4977C42.5466 14.2952 41.0761 13.9424 40.3086 13.6481C40.2216 13.616 40.1284 13.6047 40.0363 13.6151C39.9442 13.6256 39.8558 13.6574 39.7782 13.7081C39.7005 13.7588 39.6358 13.827 39.5892 13.9072C39.5426 13.9874 39.5154 14.0774 39.5097 14.17C39.5057 14.3022 39.5155 14.4344 39.5389 14.5646C39.7997 15.9863 41.4641 16.5833 42.7051 15.7733C43.4232 15.2694 43.967 14.5544 44.2611 13.7274ZM27.1433 11.5082C29.3563 10.9299 30.8163 9.1345 30.3992 7.51237C29.982 5.89024 27.8275 5.03221 25.602 5.61049C23.3765 6.18878 21.9248 7.97792 22.3482 9.60631C22.7716 11.2347 24.9199 12.0865 27.1433 11.5082Z" fill="#FBFBFB"/>
<path d="M43.9962 13.4977C44.0296 13.4786 44.0681 13.4703 44.1064 13.474C44.1447 13.4777 44.1809 13.4933 44.21 13.5185C44.2391 13.5437 44.2597 13.5774 44.2688 13.6148C44.2779 13.6522 44.2752 13.6916 44.2611 13.7274C43.967 14.5544 43.4232 15.2694 42.7051 15.7733C41.4641 16.5833 39.7996 15.9821 39.5389 14.5645C39.5155 14.4344 39.5057 14.3022 39.5097 14.17C39.5154 14.0774 39.5426 13.9874 39.5892 13.9072C39.6358 13.827 39.7005 13.7588 39.7781 13.7081C39.8557 13.6574 39.9441 13.6256 40.0362 13.6151C40.1283 13.6047 40.2216 13.616 40.3086 13.6481C41.0824 13.9362 42.5466 14.2952 43.9962 13.4977Z" fill="#EFEFEF"/>
<path d="M43.4685 8.59379C43.5114 8.57021 43.5601 8.559 43.609 8.56141C43.6579 8.56382 43.7052 8.57975 43.7456 8.60744C43.786 8.63512 43.8179 8.67348 43.8379 8.71824C43.8578 8.763 43.865 8.81242 43.8585 8.86101C43.8585 8.90068 43.8585 8.94452 43.846 8.99254C43.7188 8.85475 43.5937 8.71696 43.4685 8.59379Z" fill="#EFEFEF"/>
<path d="M43.846 8.99253C43.748 9.87771 43.4289 11.2618 42.4736 12.362C41.0428 13.9967 38.4585 13.8234 37.5304 11.9153C37.444 11.7395 37.3775 11.5547 37.3322 11.3641C37.3077 11.2451 37.3083 11.1222 37.3339 11.0034C37.3596 10.8846 37.4098 10.7725 37.4812 10.6742C37.5527 10.5759 37.6439 10.4937 37.749 10.4327C37.8541 10.3718 37.9707 10.3335 38.0914 10.3203C38.1454 10.313 38.2001 10.313 38.2541 10.3203C39.4618 10.433 41.6643 10.3474 43.3955 8.65016C43.4166 8.6297 43.4414 8.61341 43.4685 8.60214C43.5936 8.71696 43.7188 8.85475 43.846 8.99253Z" fill="#EFEFEF"/>
<path d="M43.4685 8.59379C43.4414 8.60506 43.4166 8.62135 43.3955 8.6418C41.6643 10.3412 39.4618 10.4268 38.2541 10.3119C38.2001 10.3046 38.1454 10.3046 38.0914 10.3119L38.0789 10.2159C38.7139 10.1296 39.2985 9.82301 39.7308 9.34953C40.4635 8.56711 41.0373 7.64962 41.4203 6.64807C42.1357 7.26125 42.8194 7.91067 43.4685 8.59379Z" fill="#FBFBFB"/>
<path d="M40.9885 0.232632C41.5308 1.35163 42.4486 3.89025 41.4203 6.65225C40.4841 5.84185 39.4807 5.1127 38.421 4.47271C39.4064 3.24614 40.1176 1.82236 40.5067 0.29735C40.517 0.244616 40.5435 0.19643 40.5826 0.159576C40.6216 0.122722 40.6712 0.0990556 40.7244 0.09191C40.7776 0.0847644 40.8317 0.0944991 40.8791 0.119743C40.9265 0.144988 40.9648 0.18447 40.9885 0.232632Z" fill="#EFEFEF"/>
<path d="M41.4203 6.65224C41.0373 7.65379 40.4635 8.57128 39.7308 9.3537C39.2985 9.82719 38.7139 10.1338 38.0789 10.2201C38.0205 10.2201 37.9621 10.2326 37.9016 10.2389C36.8588 10.3099 35.3487 10.1053 34.3559 8.58961C34.2964 8.49831 34.2569 8.39549 34.2398 8.28785C34.2228 8.18022 34.2286 8.07019 34.257 7.96497C34.2853 7.85975 34.3355 7.7617 34.4043 7.67724C34.4731 7.59277 34.559 7.52378 34.6562 7.47479C36.1097 6.75746 37.3906 5.73324 38.4106 4.4727C39.4739 5.1122 40.4808 5.84135 41.4203 6.65224Z" fill="#EFEFEF"/>
<path d="M13.4108 8.03429C13.4603 8.01772 13.5137 8.01669 13.5639 8.03133C13.614 8.04597 13.6585 8.07559 13.6914 8.11621C13.7243 8.15684 13.744 8.20655 13.7479 8.25868C13.7518 8.31082 13.7397 8.36291 13.7132 8.40798C9.94007 14.717 12.7245 25.2096 12.7245 25.2096C10.6503 21.9685 9.54189 18.2028 9.52917 14.3537C9.53423 13.6169 9.58718 12.8811 9.68769 12.1512C10.8703 9.38919 12.5035 8.38919 13.4108 8.03429Z" fill="#EFEFEF"/>
<path d="M7.10555 0.0259472C7.24112 -0.0742614 7.3475 0.136594 7.29744 0.303609C5.23881 7.218 5.99593 12.241 5.87079 12.9842C4.85909 15.7965 4.3432 18.7634 4.34611 21.7524C4.31567 28.3087 6.82021 34.6226 11.3355 39.3724C-10.5086 16.8944 5.68516 1.06144 7.10555 0.0259472Z" fill="#DDDDDD"/>
<g clip-path="url(#clip0_13_56)">
<path d="M79.152 44.8199C76.9868 44.3673 74.7849 44.1326 72.5765 44.1189C71.2585 44.1105 69.9411 44.1819 68.6311 44.3326V43.3281C68.612 41.2135 70.612 39.7373 74.6313 38.8995V38.8268C72.3794 38.8965 70.1488 38.3559 68.1585 37.258C66.324 36.2304 64.8183 34.6673 63.8269 32.7611C62.7853 30.7294 62.2604 28.4545 62.3022 26.1524C62.2598 23.7573 62.8391 21.3945 63.9789 19.313C65.0674 17.3525 66.6638 15.7499 68.5859 14.6878C70.6111 13.577 72.8723 13.014 75.1615 13.0506C77.4506 13.014 79.7119 13.577 81.737 14.6878C83.6588 15.7488 85.2541 17.3518 86.3399 19.313C87.4831 21.3933 88.0639 23.7566 88.0208 26.1524C88.079 28.8932 87.3101 31.5841 85.8221 33.8468C84.3891 36.0412 82.2836 37.6043 79.5054 38.5362C77.7958 39.1375 76.3245 39.6661 75.0916 40.1221C73.8587 40.578 72.8148 41.0055 71.96 41.4045V41.4643C74.0883 40.8437 76.2882 40.5288 78.4986 40.5281C81.0665 40.4925 83.6205 40.9266 86.044 41.8106V47.0214C83.8216 46.0543 81.5132 45.3169 79.152 44.8199ZM81.2069 32.7611C82.7083 31.188 83.459 28.9851 83.459 26.1524C83.459 23.3198 82.7083 21.1183 81.2069 19.5481C79.7054 17.975 77.6985 17.1884 75.1861 17.1884C72.6737 17.1884 70.6641 17.975 69.1572 19.5481C67.653 21.1211 66.9023 23.3226 66.9051 26.1524C66.9078 28.9823 67.6585 31.1851 69.1572 32.7611C70.6531 34.3313 72.66 35.1164 75.1779 35.1164C77.6958 35.1164 79.7054 34.3313 81.2069 32.7611Z" fill="#EFEFEF"/>
<path d="M94.6992 37.0785C93.4526 35.6308 92.8293 33.5134 92.8293 30.7263V20.1422H97.0171V30.1877C97.0171 31.9147 97.4281 33.2284 98.25 34.129C99.0719 35.0266 100.251 35.4798 101.797 35.4798C102.53 35.5155 103.262 35.3931 103.947 35.1202C104.633 34.8472 105.256 34.4297 105.779 33.8939C106.283 33.3363 106.674 32.6795 106.929 31.9622C107.185 31.245 107.299 30.4817 107.267 29.7175V20.1422H111.454V38.7542H107.263L107.748 33.3424H107.678C107.28 35.0758 106.321 36.6139 104.961 37.6983C103.537 38.7611 101.815 39.3051 100.062 39.2457C97.7335 39.2543 95.9458 38.5319 94.6992 37.0785Z" fill="#EFEFEF"/>
<path d="M120.915 38.0146C119.381 37.261 118.094 36.0536 117.216 34.5436C116.347 32.9876 115.905 31.2133 115.938 29.414C115.903 27.6205 116.328 25.8496 117.171 24.2844C117.989 22.8143 119.202 21.6243 120.66 20.8604C122.276 20.0198 124.065 19.6003 125.871 19.6378C128.885 19.6378 131.228 20.5384 132.899 22.3394C134.57 24.1405 135.4 26.6112 135.389 29.7517L120.595 31.889C121.4 34.337 123.5 35.561 126.895 35.561C129.345 35.5191 131.769 35.033 134.058 34.1247V37.865C132.93 38.3241 131.763 38.6705 130.573 38.8995C129.276 39.1387 127.961 39.2532 126.644 39.2415C124.669 39.3002 122.707 38.8802 120.915 38.0146ZM131.189 27.1997C131.054 26.0969 130.506 25.0941 129.665 24.4084C128.81 23.6988 127.599 23.344 126.032 23.344C124.207 23.344 122.811 23.8128 121.844 24.7503C120.877 25.6879 120.345 27.0316 120.249 28.7814L131.189 27.1997Z" fill="#EFEFEF"/>
<path d="M145.388 38.2668C144.246 37.6085 143.362 36.4815 142.738 34.8856C142.113 33.2897 141.802 31.1224 141.805 28.3838V24.1733L137.999 23.9595V20.1422L141.805 20.356V16.2908H145.993V20.4286H147.135C149.467 20.4286 152.206 20.3332 155.354 20.1422V23.9595C152.215 24.1533 149.475 24.2488 147.135 24.2459H145.993V28.4223C145.993 31.0127 146.303 32.8651 146.925 33.9794C147.219 34.5128 147.65 34.9503 148.17 35.2426C148.69 35.5349 149.278 35.6703 149.868 35.6336C150.28 35.6591 150.692 35.5963 151.079 35.4493C151.467 35.3022 151.821 35.074 152.12 34.7787C152.39 34.4782 152.6 34.1244 152.736 33.7381C152.872 33.3519 152.932 32.9412 152.913 32.5302C152.913 30.7035 152.002 29.1077 150.18 27.7426L153.02 25.3317C154.245 26.2376 155.286 27.3868 156.082 28.713C156.781 29.8654 157.158 31.1975 157.171 32.5602C157.209 33.4765 157.05 34.3902 156.706 35.2346C156.362 36.0791 155.841 36.8331 155.182 37.4418C153.856 38.653 152.027 39.2586 149.695 39.2586C148.202 39.3158 146.719 38.9744 145.388 38.2668Z" fill="#EFEFEF"/>
<path d="M159.838 38.6088L170.219 23.9595H160.841V20.1422H177.074V20.2876L166.759 34.9369H176.692V38.7542H159.842L159.838 38.6088Z" fill="#EFEFEF"/>
<path d="M181.554 37.7111C180.982 37.1806 180.531 36.5236 180.234 35.7885C179.938 35.0533 179.803 34.2584 179.84 33.4621C179.807 32.6123 179.97 31.7666 180.316 30.996C180.663 30.2255 181.181 29.5525 181.829 29.0336C183.155 27.9506 185.053 27.4106 187.521 27.4135H193.509C193.531 26.835 193.423 26.2591 193.195 25.7311C192.967 25.203 192.624 24.7371 192.194 24.3699C191.339 23.6631 190.106 23.3098 188.495 23.3098C186.325 23.3098 183.859 23.9581 181.098 25.2548V21.2921C183.684 20.2529 186.426 19.693 189.198 19.6378C191.919 19.6378 194.017 20.3503 195.494 21.7752C196.971 23.2001 197.709 25.2277 197.709 27.858V38.7542H193.513L193.965 33.3424H193.895C193.463 35.0834 192.482 36.6232 191.109 37.7154C189.693 38.7655 187.985 39.3031 186.247 39.2457C184.263 39.2543 182.699 38.7428 181.554 37.7111ZM190.398 34.9369C191.284 34.5307 192.062 33.9074 192.666 33.1201C193.21 32.4222 193.509 31.5521 193.513 30.6537V30.3502H187.595C185.195 30.3502 183.995 31.2051 183.995 32.915C183.972 33.3015 184.039 33.6881 184.19 34.0422C184.341 34.3963 184.572 34.7075 184.862 34.9497C185.607 35.4673 186.496 35.7138 187.39 35.6507C188.431 35.647 189.458 35.4032 190.398 34.9369Z" fill="#EFEFEF"/>
<path d="M203.031 13.555L207.219 12.7257V38.7542H203.031V13.555Z" fill="#EFEFEF"/>
<path d="M62.3023 0.294952H65.6559C66.9422 0.294952 67.8874 0.525785 68.4833 0.983174C68.7841 1.22348 69.0232 1.53723 69.1794 1.89663C69.3357 2.25603 69.4044 2.64998 69.3793 3.04357C69.3859 3.47001 69.2621 3.88763 69.0258 4.2362C68.7861 4.58371 68.4688 4.86539 68.1011 5.05694C67.7345 5.25479 67.3334 5.37399 66.9217 5.40746V5.43311C67.3473 5.44841 67.7585 5.59744 68.1011 5.86057C68.406 6.1488 68.646 6.50349 68.8039 6.89932L69.8108 9.23756H68.0272L67.2792 7.29686C67.1489 6.90809 66.9045 6.57167 66.5805 6.33506C66.2161 6.11375 65.7979 6.00686 65.3764 6.02729H63.8764V9.23756H62.3023V0.294952ZM67.234 4.42428C67.423 4.2893 67.5742 4.10469 67.6724 3.88921C67.7706 3.67373 67.8121 3.43506 67.7929 3.19745C67.8137 2.97205 67.7767 2.74495 67.6858 2.53922C67.5948 2.3335 67.4531 2.15649 67.2751 2.02619C66.7258 1.74541 66.1138 1.6243 65.5038 1.67567H63.8764V4.79191H65.4011C66.0326 4.84055 66.6652 4.71368 67.234 4.42428Z" fill="#EFEFEF"/>
<path d="M72.4451 8.97681C71.9029 8.70641 71.4487 8.27699 71.1382 7.74143C70.828 7.1912 70.6701 6.56244 70.682 5.92469C70.6716 5.29068 70.8234 4.66518 71.1218 4.11223C71.4072 3.58561 71.8362 3.15872 72.3547 2.8854C72.9271 2.58882 73.5606 2.44209 74.1999 2.45794C74.6557 2.43191 75.1117 2.50389 75.5395 2.66937C75.9673 2.83485 76.3577 3.09029 76.6863 3.41974C76.9919 3.7643 77.2291 4.16823 77.3843 4.60837C77.5394 5.0485 77.6095 5.51617 77.5905 5.98454L72.3177 6.7497C72.5917 7.65024 73.3451 8.10193 74.578 8.10477C75.4483 8.08991 76.3094 7.91629 77.1219 7.59181V8.92124C76.723 9.08575 76.3102 9.21168 75.889 9.29741C75.428 9.38361 74.9602 9.42511 74.4917 9.42137C73.7857 9.43921 73.0853 9.28706 72.4451 8.97681ZM76.1151 5.30059C76 4.27752 75.3781 3.76599 74.2493 3.76599C73.9754 3.74611 73.7004 3.78354 73.4407 3.87605C73.1809 3.96856 72.9416 4.11427 72.7369 4.30459C72.5537 4.51444 72.4126 4.76007 72.3216 5.0272C72.2305 5.29432 72.1915 5.57761 72.2067 5.86057L76.1151 5.30059Z" fill="#EFEFEF"/>
<path d="M79.1275 2.6332H80.6111L80.4385 4.55252H80.4673C80.6262 3.92346 80.9909 3.37171 81.4988 2.99227C82.0245 2.61458 82.6519 2.42002 83.2906 2.43656C83.8565 2.42253 84.4152 2.57039 84.9058 2.86403C85.3797 3.15874 85.762 3.58909 86.0072 4.10368C86.2836 4.65652 86.4247 5.27169 86.4181 5.89477C86.4296 6.53622 86.2764 7.16925 85.9743 7.7286C85.6839 8.25552 85.2566 8.68664 84.7414 8.97253C84.1675 9.27814 83.5282 9.42672 82.8838 9.40427C82.4761 9.40704 82.0708 9.34063 81.6837 9.20764C81.2952 9.06328 80.9327 8.85234 80.6111 8.58354V11.7981H79.1275V2.6332ZM84.3181 7.51059C84.5108 7.30114 84.66 7.05256 84.7561 6.78042C84.8523 6.50827 84.8934 6.21841 84.877 5.92897C84.894 5.64141 84.853 5.35333 84.7568 5.08318C84.6605 4.81303 84.5111 4.56677 84.3181 4.36016C84.1057 4.16342 83.858 4.01228 83.5893 3.91544C83.3206 3.81861 83.0361 3.77798 82.7523 3.79591C82.1765 3.75978 81.6104 3.9627 81.1782 4.36016C80.9833 4.56573 80.8321 4.81161 80.7344 5.08187C80.6367 5.35213 80.5947 5.64074 80.6111 5.92897C80.5936 6.21988 80.6351 6.51136 80.7328 6.78456C80.8305 7.05775 80.9822 7.30655 81.1782 7.51487C81.6104 7.91233 82.1765 8.11526 82.7523 8.07913C83.0364 8.09624 83.321 8.05482 83.5897 7.95726C83.8584 7.8597 84.1059 7.7079 84.3181 7.51059Z" fill="#EFEFEF"/>
<path d="M88.9867 8.75453C88.5757 8.32706 88.3785 7.60464 88.3785 6.61719V3.98827H87.3962V2.88968H87.4949C87.8561 2.87985 88.2001 2.72695 88.4565 2.46221C88.7231 2.16633 88.8941 1.7912 88.9456 1.38927L88.9703 1.2824H89.8662V2.6503H92.632V3.98827H89.8662V6.46758C89.8237 6.90054 89.93 7.33516 90.1662 7.69441C90.3006 7.82668 90.4609 7.92723 90.6361 7.98919C90.8112 8.05116 90.9972 8.07309 91.1813 8.05348C91.7156 8.03524 92.2445 7.93588 92.7512 7.75853V9.13925C92.1555 9.33465 91.5346 9.43412 90.91 9.4342C90.5618 9.46415 90.2113 9.41926 89.8804 9.30234C89.5496 9.18541 89.2453 8.99894 88.9867 8.75453Z" fill="#EFEFEF"/>
<path d="M94.3581 1.54743C94.2706 1.46761 94.201 1.36885 94.1542 1.25808C94.1073 1.14731 94.0843 1.02722 94.0869 0.906231C94.0854 0.787888 94.1089 0.670649 94.1557 0.562804C94.2026 0.454959 94.2717 0.359142 94.3581 0.282129C94.544 0.109109 94.7869 0.017253 95.0362 0.0256485C95.2865 0.0187554 95.5302 0.110347 95.7184 0.282129C95.8075 0.357507 95.8792 0.452697 95.9283 0.560701C95.9774 0.668704 96.0026 0.786774 96.002 0.906231C96.0046 1.02764 95.9812 1.14813 95.9336 1.25901C95.886 1.36989 95.8153 1.4684 95.7266 1.54743C95.5384 1.71921 95.2948 1.8108 95.0444 1.80391C94.7923 1.81454 94.5461 1.72254 94.3581 1.54743ZM94.2965 2.6332H95.7842V9.24184H94.3006L94.2965 2.6332Z" fill="#EFEFEF"/>
<path d="M97.7568 0.294952L99.2404 0V9.24184H97.7568V0.294952Z" fill="#EFEFEF"/>
<path d="M101.447 8.86994C101.244 8.68153 101.084 8.44823 100.979 8.18714C100.874 7.92604 100.826 7.64376 100.839 7.36098C100.825 7.06814 100.88 6.77622 100.999 6.51037C101.118 6.24451 101.297 6.01271 101.521 5.83493C102.088 5.43891 102.764 5.2481 103.445 5.29204H105.693C105.702 5.07714 105.666 4.86269 105.585 4.66444C105.505 4.4662 105.383 4.2892 105.228 4.14643C104.845 3.86443 104.381 3.72716 103.913 3.75744C102.999 3.7933 102.103 4.02927 101.283 4.44993V3.04357C102.201 2.67277 103.175 2.47308 104.16 2.45366C104.971 2.39909 105.772 2.66812 106.4 3.206C106.67 3.48794 106.881 3.82664 107.016 4.19958C107.151 4.57252 107.209 4.97116 107.185 5.36899V9.24184H105.697L105.857 7.32251H105.832C105.679 7.94205 105.331 8.49007 104.842 8.87849C104.336 9.24684 103.728 9.43163 103.112 9.40427C102.513 9.44271 101.921 9.25274 101.447 8.86994ZM104.587 7.88677C104.908 7.74331 105.19 7.52022 105.409 7.23702C105.602 6.98581 105.708 6.6739 105.709 6.35216V6.17262H103.597C103.265 6.15074 102.936 6.23906 102.656 6.42483C102.547 6.50997 102.461 6.62168 102.404 6.74997C102.348 6.87827 102.322 7.01917 102.331 7.16007C102.323 7.2974 102.346 7.43478 102.4 7.56055C102.454 7.68632 102.536 7.79677 102.639 7.88249C102.904 8.06455 103.218 8.15161 103.535 8.13042C103.899 8.12965 104.258 8.0465 104.587 7.88677Z" fill="#EFEFEF"/>
<path d="M109.071 2.6332H110.559L110.386 4.55252H110.411C110.554 3.93503 110.893 3.38555 111.372 2.99227C111.866 2.61771 112.467 2.42653 113.078 2.44939C113.276 2.44948 113.474 2.46664 113.67 2.50068V4.03956C113.491 3.95386 113.303 3.88933 113.111 3.8472C112.915 3.80602 112.715 3.78455 112.515 3.78308C112.256 3.7713 111.997 3.81407 111.754 3.90882C111.511 4.00357 111.289 4.14837 111.101 4.33452C110.919 4.52283 110.777 4.7486 110.683 4.9974C110.59 5.24619 110.547 5.51252 110.559 5.77935V9.22901H109.071V2.6332Z" fill="#EFEFEF"/>
<path d="M115.182 1.54743C115.095 1.46761 115.025 1.36885 114.978 1.25808C114.931 1.14731 114.908 1.02722 114.911 0.906231C114.909 0.787888 114.933 0.670649 114.98 0.562804C115.027 0.454959 115.096 0.359142 115.182 0.282129C115.366 0.108593 115.608 0.0165738 115.856 0.0256486C116.106 0.0179003 116.35 0.109602 116.538 0.282129C116.626 0.358342 116.696 0.453902 116.744 0.561859C116.791 0.669817 116.815 0.787459 116.814 0.906231C116.816 1.02764 116.793 1.14813 116.745 1.25901C116.698 1.36989 116.627 1.4684 116.538 1.54743C116.35 1.71996 116.106 1.81166 115.856 1.80391C115.608 1.81299 115.366 1.72097 115.182 1.54743ZM115.12 2.6332H116.604V9.24184H115.12V2.6332Z" fill="#EFEFEF"/>
<path d="M120.003 8.97681C119.461 8.70066 119.004 8.27284 118.683 7.74143C118.357 7.20315 118.187 6.57817 118.194 5.94179C118.184 5.30624 118.351 4.68125 118.675 4.14216C118.997 3.61077 119.454 3.18187 119.994 2.9025C120.589 2.60716 121.24 2.45389 121.899 2.45389C122.558 2.45389 123.209 2.60716 123.804 2.9025C124.345 3.18047 124.8 3.60977 125.119 4.14216C125.439 4.68285 125.603 5.3073 125.592 5.94179C125.605 6.57158 125.444 7.19203 125.129 7.72983C124.813 8.26764 124.357 8.70034 123.812 8.97681C123.216 9.26691 122.566 9.41727 121.908 9.41727C121.249 9.41727 120.599 9.26691 120.003 8.97681ZM123.5 7.48067C123.696 7.27764 123.85 7.03455 123.951 6.76674C124.052 6.49893 124.098 6.21221 124.088 5.92469C124.097 5.63986 124.05 5.35603 123.949 5.09114C123.848 4.82626 123.695 4.58609 123.5 4.38581C123.287 4.18209 123.037 4.02461 122.764 3.92259C122.492 3.82057 122.203 3.77605 121.914 3.79163C121.623 3.77576 121.332 3.8201 121.057 3.9221C120.783 4.02409 120.53 4.18171 120.315 4.38581C120.12 4.58609 119.967 4.82626 119.866 5.09114C119.765 5.35603 119.718 5.63986 119.727 5.92469C119.717 6.21221 119.763 6.49893 119.864 6.76674C119.966 7.03455 120.119 7.27764 120.315 7.48067C120.53 7.68478 120.783 7.8424 121.057 7.94439C121.332 8.04638 121.623 8.09073 121.914 8.07485C122.203 8.09101 122.492 8.04717 122.764 7.94588C123.036 7.8446 123.287 7.68791 123.5 7.48495V7.48067Z" fill="#EFEFEF"/>
<path d="M131.621 11.905C131.342 11.8453 131.068 11.7668 130.799 11.6699V10.302C131.067 10.411 131.342 10.5024 131.621 10.5755C131.848 10.6354 132.081 10.6642 132.315 10.661C132.556 10.6732 132.794 10.5959 132.985 10.443C133.174 10.2566 133.308 10.0178 133.372 9.7548L133.483 9.32733L130.269 2.6332H131.818L134.14 7.64311L136.01 2.6332H137.51L134.933 9.22901C134.621 10.0113 134.378 10.5713 134.214 10.9047C134.052 11.2538 133.791 11.543 133.466 11.7333C133.142 11.9236 132.769 12.0059 132.398 11.9691C132.137 11.973 131.877 11.9515 131.621 11.905Z" fill="#EFEFEF"/>
<path d="M145.105 0.294952H146.962L150.291 9.24184H148.697L148.142 7.66876H143.872L143.321 9.24184H141.735L145.105 0.294952ZM147.645 6.30086L146.001 1.72697L144.357 6.30086H147.645Z" fill="#EFEFEF"/>
<path d="M150.867 11.8494V10.6097C151.053 10.6679 151.247 10.6981 151.442 10.6995C151.571 10.7071 151.699 10.6814 151.816 10.6247C151.933 10.568 152.035 10.4821 152.112 10.3746C152.29 10.0458 152.368 9.66903 152.338 9.29313V2.6332H153.826V9.25466C153.859 9.95171 153.693 10.6435 153.349 11.2424C153.17 11.4933 152.933 11.6926 152.66 11.8213C152.387 11.95 152.086 12.0038 151.787 11.9776C151.476 11.9826 151.166 11.9394 150.867 11.8494ZM152.4 1.54743C152.313 1.4674 152.244 1.3685 152.198 1.2577C152.151 1.14691 152.129 1.02693 152.132 0.906231C152.13 0.788179 152.153 0.671054 152.199 0.563185C152.245 0.455317 152.314 0.359356 152.4 0.282129C152.585 0.109109 152.828 0.017253 153.078 0.0256485C153.328 0.0179002 153.572 0.109601 153.76 0.282129C153.847 0.358342 153.918 0.453902 153.965 0.561859C154.013 0.669817 154.037 0.787459 154.035 0.906231C154.038 1.02764 154.014 1.14813 153.967 1.25901C153.919 1.36989 153.849 1.4684 153.76 1.54743C153.572 1.71996 153.328 1.81166 153.078 1.80391C152.828 1.81231 152.585 1.72045 152.4 1.54743Z" fill="#EFEFEF"/>
<path d="M157.237 8.97681C156.694 8.70181 156.237 8.27373 155.917 7.74143C155.593 7.20101 155.426 6.57449 155.437 5.93752C155.427 5.30196 155.594 4.67698 155.917 4.13788C156.239 3.60691 156.695 3.17921 157.237 2.9025C157.832 2.60716 158.482 2.45389 159.142 2.45389C159.801 2.45389 160.452 2.60716 161.046 2.9025C161.587 3.18047 162.042 3.60977 162.361 4.14216C162.681 4.68285 162.845 5.3073 162.834 5.94179C162.845 6.57388 162.681 7.19594 162.362 7.73398C162.043 8.27202 161.582 8.7034 161.034 8.97681C160.439 9.26496 159.791 9.41427 159.135 9.41427C158.479 9.41427 157.831 9.26496 157.237 8.97681ZM160.734 7.48067C160.93 7.27764 161.083 7.03455 161.185 6.76674C161.286 6.49893 161.332 6.21221 161.322 5.92469C161.331 5.63986 161.284 5.35603 161.183 5.09114C161.082 4.82626 160.929 4.58609 160.734 4.38581C160.285 4.00196 159.722 3.7921 159.142 3.7921C158.561 3.7921 157.998 4.00196 157.549 4.38581C157.354 4.58609 157.201 4.82626 157.1 5.09114C156.999 5.35603 156.952 5.63986 156.961 5.92469C156.951 6.21221 156.997 6.49893 157.098 6.76674C157.2 7.03455 157.353 7.27764 157.549 7.48067C157.998 7.86453 158.561 8.07439 159.142 8.07439C159.722 8.07439 160.285 7.86453 160.734 7.48067Z" fill="#EFEFEF"/>
<path d="M164.433 0.294952L165.921 0V9.24184H164.433V0.294952Z" fill="#EFEFEF"/>
<path d="M169.315 8.97681C168.773 8.70066 168.317 8.27284 167.996 7.74143C167.671 7.20269 167.503 6.57774 167.511 5.94179C167.501 5.30624 167.668 4.68125 167.992 4.14216C168.314 3.61077 168.77 3.18187 169.311 2.9025C169.906 2.60716 170.557 2.45389 171.216 2.45389C171.875 2.45389 172.526 2.60716 173.121 2.9025C173.661 3.18047 174.117 3.60977 174.436 4.14216C174.755 4.68285 174.919 5.3073 174.908 5.94179C174.921 6.57204 174.76 7.1928 174.443 7.73066C174.127 8.26851 173.67 8.70095 173.125 8.97681C172.529 9.26691 171.878 9.41727 171.22 9.41727C170.562 9.41727 169.911 9.26691 169.315 8.97681ZM172.813 7.48067C173.009 7.27827 173.163 7.03528 173.265 6.76732C173.366 6.49935 173.412 6.21234 173.4 5.92469C173.411 5.63973 173.364 5.35559 173.263 5.09056C173.162 4.82552 173.008 4.58546 172.813 4.38581C172.597 4.18073 172.344 4.02283 172.069 3.92148C171.793 3.82014 171.501 3.77744 171.21 3.79591C170.919 3.78003 170.628 3.82438 170.353 3.92637C170.079 4.02837 169.826 4.18598 169.611 4.39009C169.416 4.59037 169.263 4.83054 169.162 5.09542C169.061 5.3603 169.014 5.64413 169.023 5.92897C169.013 6.21649 169.059 6.5032 169.16 6.77101C169.262 7.03883 169.415 7.28192 169.611 7.48495C169.826 7.68906 170.079 7.84667 170.353 7.94866C170.628 8.05066 170.919 8.095 171.21 8.07913C171.502 8.09703 171.794 8.05364 172.069 7.95156C172.345 7.84948 172.597 7.69079 172.813 7.48495V7.48067Z" fill="#EFEFEF"/>
<path d="M177.502 8.75452C177.091 8.32706 176.893 7.60464 176.893 6.61719V3.98827H175.907V2.88968H176.006C176.368 2.88007 176.714 2.72722 176.972 2.46221C177.237 2.16593 177.406 1.79077 177.456 1.38927L177.481 1.27385H178.377V2.64175H181.143V3.98827H178.377V6.46758C178.338 6.89682 178.446 7.32653 178.681 7.68158C178.815 7.81351 178.975 7.91388 179.149 7.97585C179.323 8.03782 179.509 8.05992 179.692 8.04065C180.228 8.02284 180.758 7.92346 181.266 7.7457V9.12642C180.671 9.31496 180.051 9.40864 179.429 9.40427C178.547 9.40427 177.904 9.18769 177.502 8.75452Z" fill="#EFEFEF"/>
<path d="M183.066 8.86994C182.863 8.68153 182.703 8.44823 182.598 8.18714C182.493 7.92604 182.445 7.64376 182.458 7.36098C182.443 7.06925 182.496 6.77803 182.612 6.51226C182.729 6.24649 182.906 6.01408 183.128 5.83493C183.694 5.43891 184.37 5.2481 185.051 5.29204H187.299C187.309 5.07714 187.272 4.86269 187.192 4.66444C187.112 4.4662 186.99 4.2892 186.835 4.14643C186.452 3.86443 185.988 3.72716 185.52 3.75744C184.606 3.7933 183.71 4.02927 182.89 4.44993V3.04357C183.808 2.67286 184.782 2.47317 185.766 2.45366C186.576 2.39976 187.376 2.66878 188.002 3.206C188.273 3.48794 188.483 3.82664 188.618 4.19958C188.754 4.57252 188.811 4.97116 188.787 5.36899V9.24184H187.299L187.46 7.32251H187.435C187.282 7.94205 186.933 8.49007 186.444 8.87849C185.943 9.24323 185.342 9.42785 184.731 9.40428C184.132 9.44271 183.54 9.25274 183.066 8.86994ZM186.206 7.88677C186.527 7.74331 186.809 7.52022 187.028 7.23702C187.221 6.98581 187.327 6.6739 187.328 6.35216V6.17262H185.183C184.851 6.15074 184.522 6.23906 184.242 6.42483C184.133 6.50997 184.047 6.62168 183.99 6.74998C183.934 6.87827 183.908 7.01917 183.917 7.16007C183.909 7.2974 183.932 7.43479 183.986 7.56056C184.04 7.68633 184.122 7.79677 184.225 7.88249C184.49 8.06455 184.804 8.15161 185.121 8.13042C185.496 8.13469 185.866 8.05143 186.206 7.88677Z" fill="#EFEFEF"/>
<path d="M190.694 2.6332H192.169L192.001 4.55252H192.025C192.168 3.93351 192.508 3.38328 192.991 2.99227C193.485 2.61771 194.086 2.42653 194.697 2.44939C194.895 2.44948 195.093 2.46664 195.289 2.50068V4.03956C195.11 3.95323 194.922 3.88868 194.73 3.8472C194.533 3.80581 194.334 3.78433 194.134 3.78308C193.875 3.77155 193.616 3.81443 193.373 3.90917C193.13 4.00391 192.908 4.14857 192.72 4.33452C192.535 4.52356 192.39 4.75109 192.295 5.00226C192.2 5.25343 192.157 5.5226 192.169 5.79218V9.24184H190.686L190.694 2.6332Z" fill="#EFEFEF"/>
<path d="M196.801 1.54743C196.713 1.46761 196.644 1.36885 196.597 1.25808C196.55 1.14731 196.527 1.02722 196.53 0.90623C196.528 0.787888 196.552 0.670649 196.598 0.562804C196.645 0.454959 196.714 0.359142 196.801 0.282129C196.985 0.109375 197.227 0.017475 197.475 0.0256485C197.725 0.0179002 197.969 0.109601 198.157 0.282129C198.245 0.358342 198.315 0.453902 198.362 0.561859C198.41 0.669817 198.434 0.787459 198.432 0.90623C198.435 1.02764 198.412 1.14813 198.364 1.25901C198.316 1.36989 198.246 1.4684 198.157 1.54743C197.969 1.71996 197.725 1.81166 197.475 1.80391C197.227 1.81208 196.985 1.72019 196.801 1.54743ZM196.739 2.6332H198.227V9.24184H196.739V2.6332Z" fill="#EFEFEF"/>
<path d="M201.622 8.97681C201.081 8.69861 200.625 8.27124 200.302 7.74143C199.978 7.20101 199.811 6.57449 199.822 5.93752C199.812 5.30196 199.979 4.67698 200.302 4.13788C200.625 3.60807 201.081 3.1807 201.622 2.9025C202.217 2.60334 202.872 2.45676 203.533 2.47503C204.189 2.45765 204.84 2.60424 205.431 2.9025C205.972 3.18046 206.427 3.60976 206.746 4.14216C207.066 4.68285 207.23 5.3073 207.219 5.94179C207.231 6.5725 207.069 7.19359 206.752 7.73149C206.435 8.26939 205.977 8.70156 205.431 8.97681C204.839 9.27213 204.189 9.41855 203.533 9.40428C202.872 9.4185 202.218 9.27212 201.622 8.97681ZM205.119 7.48067C205.319 7.28083 205.478 7.03951 205.583 6.77226C205.689 6.50501 205.739 6.21775 205.731 5.92897C205.741 5.64373 205.694 5.35948 205.592 5.09446C205.49 4.82945 205.336 4.58952 205.139 4.39009C204.692 4.0058 204.129 3.79561 203.549 3.79561C202.969 3.79561 202.406 4.0058 201.959 4.39009C201.762 4.58952 201.608 4.82945 201.506 5.09446C201.404 5.35948 201.357 5.64373 201.367 5.92897C201.356 6.21689 201.403 6.50402 201.505 6.77197C201.607 7.03991 201.761 7.28276 201.959 7.48495C202.406 7.86924 202.969 8.07943 203.549 8.07943C204.129 8.07943 204.692 7.86924 205.139 7.48495L205.119 7.48067Z" fill="#EFEFEF"/>
</g>
<defs>
<clipPath id="clip0_13_56">
<rect width="144.917" height="47" fill="white" transform="translate(62.3023)"/>
</clipPath>
</defs>
</svg>
