<svg width="46" height="37" viewBox="0 0 46 37" fill="none" xmlns="http://www.w3.org/2000/svg">
<path d="M37.5271 0C34.1944 2.05631 33.9167 4.22401 32.1413 7.6255C33.3216 8.0539 34.4126 8.52514 35.4144 9.03065C38.757 6.23749 35.8112 3.54714 37.5271 0ZM6.77739 1.11384C6.14756 4.65241 8.61432 6.81154 11.0444 8.76504C12.9289 10.2901 14.7738 11.721 15.5673 13.4346C15.8252 12.8091 16.1425 12.2008 16.5095 11.6267C15.964 8.23383 13.8811 6.69159 11.7585 5.32071C9.85414 4.09549 7.94977 2.99022 6.77739 1.11384ZM16.8071 7.04288C16.6186 7.04288 16.4203 7.05145 16.2318 7.05145C17.2435 8.2681 17.9874 9.8189 18.2255 11.978C18.2354 12.1151 18.2056 12.2522 18.1362 12.3722C17.6899 13.2889 12.8496 24.136 31.8536 24.3845C31.9528 24.3759 32.0421 24.3673 32.1413 24.3588C49.1021 22.5681 41.068 6.92293 16.8071 7.04288ZM45.9381 7.29992C42.9823 9.57043 40.1059 7.47984 37.3882 10.1445C38.4991 10.8556 39.4513 11.6096 40.2448 12.3807C42.4666 10.7785 44.7379 10.3758 45.9381 7.29992ZM7.61254 7.78829C5.47408 8.11387 3.24339 8.55084 0.928382 9.10776C1.99364 9.63898 3.09262 9.66468 4.31559 9.69895C6.41338 9.75036 8.84244 9.76749 11.9668 11.4897C10.846 10.5129 9.52683 9.56186 8.35643 8.49943C8.09855 8.2681 7.85058 8.02819 7.61254 7.78829ZM0.708189 10.6157C1.16048 11.5582 1.70997 12.2865 2.3398 12.8691C3.86628 14.2657 5.83909 14.7541 7.8605 15.1568C10.2311 15.628 12.671 15.9878 14.7341 17.1702C14.744 16.6219 14.8135 16.065 14.9226 15.5252C10.1715 11.2155 6.93014 11.1898 4.266 11.1212C2.9865 11.087 1.828 11.0356 0.708189 10.6157ZM45.9976 12.535C44.847 13.7173 43.26 13.6231 41.564 13.8801C41.7524 14.1372 41.9309 14.3942 42.0896 14.6512C42.5062 15.3538 42.8137 16.0564 43.0022 16.7504C46.1959 15.3881 45.9976 12.535 45.9976 12.535ZM0.365005 13.0319L0.321363 19.6292C2.52825 19.8606 4.34832 18.9781 6.25567 18.2327C7.55303 17.7271 8.89204 17.2559 10.36 17.1103C9.41772 16.8961 8.4457 16.7333 7.49351 16.5448C5.15272 16.0821 2.9012 15.4652 1.13568 13.8459C0.867879 13.5974 0.609995 13.3318 0.365005 13.0319ZM37.9536 15.8508C38.5487 15.8422 39.0744 16.0735 39.2926 16.4762C39.6001 17.0674 39.1438 17.8214 38.271 18.1555C37.3882 18.4811 36.4261 18.2755 36.1087 17.6843C35.7913 17.0931 36.2476 16.3391 37.1303 16.005C37.3981 15.9022 37.6858 15.8508 37.9536 15.8508ZM24.6031 16.5362C24.9205 16.5362 25.2478 16.5962 25.5751 16.7161C26.6067 17.1103 27.1423 17.9842 26.7654 18.6782C26.3984 19.3722 25.2677 19.6207 24.2361 19.2351C23.2046 18.841 22.669 17.967 23.0459 17.273C23.2939 16.7932 23.9088 16.5276 24.6031 16.5362ZM11.2923 18.5154C9.68553 18.5154 8.287 19.0038 6.93609 19.535C4.79069 20.3661 2.7296 21.2743 0.274746 21.0601C1.76651 21.9854 3.80081 22.2339 5.86289 22.1911C9.82439 22.1054 13.9406 20.8802 15.2697 20.4518C15.1308 20.0748 15.0217 19.6978 14.9325 19.3122C13.5835 18.7296 12.3933 18.5068 11.2923 18.5154ZM10.3104 23.1592C8.91188 23.4077 7.39631 23.5876 5.90356 23.6219C5.13883 23.6391 4.38006 23.6133 3.64509 23.5362C0.702238 27.0234 3.26719 29.6623 0 33.2609L3.34555 33.0895L4.14896 36.2597L8.40603 33.6893H12.5917L10.5385 31.4616C11.9866 27.606 14.8035 25.9867 18.3048 25.2841C17.4816 24.4787 15.3987 23.2878 10.3104 23.1592ZM39.2827 24.7872L30.346 27.5632L34.5515 29.5338L32.5083 31.7272L36.803 31.6415L42.536 34.1434L42.1095 32.1128C42.1095 32.1128 44.3114 32.7725 45.2438 31.5987C40.8597 30.2364 41.8119 27.7859 39.2827 24.7872Z" fill="#F5F5F7"/>
</svg>
