<svg width="50" height="37" viewBox="0 0 50 37" fill="none" xmlns="http://www.w3.org/2000/svg">
<path d="M43.6175 5.00182C43.1159 3.55056 42.0747 2.27784 40.651 1.37562C39.2274 0.473403 37.4984 -0.00936535 35.725 0.000137653C33.6697 0.00170275 31.6894 0.659135 30.1734 1.8432C28.6574 3.02726 27.7154 4.65231 27.5325 6.39888H22.47C22.2846 4.65047 21.3395 3.02444 19.8203 1.8404C18.3011 0.65635 16.3177 -7.76808e-05 14.26 0.000137653C12.4891 -0.00658373 10.7636 0.477468 9.34297 1.37948C7.92234 2.28149 6.88342 3.55268 6.3825 5.00182L0.105 22.85C0.0353159 23.0487 -5.62384e-05 23.2549 6.71142e-08 23.4622V25.5951C0.00397096 28.4229 1.32255 31.1338 3.66643 33.1331C6.01032 35.1324 9.18808 36.2569 12.5025 36.2597C14.9319 36.257 17.3078 35.6503 19.3395 34.5139C21.3712 33.3775 22.9707 31.7606 23.9425 29.8609H26.0575C27.0293 31.7606 28.6288 33.3775 30.6605 34.5139C32.6922 35.6503 35.0681 36.257 37.4975 36.2597C40.8124 36.2569 43.9905 35.1321 46.3344 33.1324C48.6784 31.1326 49.9967 28.4211 50 25.593V23.4622C50 23.2532 49.965 23.0491 49.895 22.85L43.6175 5.00182ZM12.5025 31.9939C10.514 31.9916 8.60758 31.3168 7.20124 30.1173C5.79489 28.9179 5.00331 27.2917 5 25.5951C5 25.433 5.0425 25.2816 5.055 25.1216C5.19178 23.5151 6.03486 22.012 7.41541 20.9132C8.79595 19.8145 10.612 19.2013 12.5 19.1964C14.4891 19.1964 16.3968 19.8705 17.8033 21.0705C19.2098 22.2705 20 23.8981 20 25.5951V25.6143C19.9914 27.307 19.1981 28.928 17.7933 30.1233C16.3886 31.3186 14.4865 31.9911 12.5025 31.9939ZM37.4975 31.9939C35.5135 31.9911 33.6114 31.3186 32.2067 30.1233C30.8019 28.928 30.0086 27.307 30 25.6143V25.5951C29.9998 24.7548 30.1937 23.9227 30.5704 23.1463C30.9472 22.37 31.4995 21.6645 32.1958 21.0702C33.6021 19.87 35.5096 19.1956 37.4987 19.1953C39.4879 19.195 41.3957 19.8689 42.8024 21.0687C44.2092 22.2685 44.9997 23.8959 45 25.593C44.9974 27.2899 44.2061 28.9167 42.7996 30.1166C41.3932 31.3165 39.4865 31.9916 37.4975 31.9939Z" fill="#F5F5F7"/>
</svg>
