<svg width="207" height="48" viewBox="0 0 207 48" fill="none" xmlns="http://www.w3.org/2000/svg">
<g clip-path="url(#clip0_29_2)">
<path d="M78.8593 44.8457C76.693 44.3928 74.4897 44.1579 72.28 44.1442C70.9613 44.1359 69.6432 44.2073 68.3324 44.3581V43.353C68.3132 41.2372 70.3145 39.7602 74.3361 38.9219V38.8492C72.0829 38.9189 69.851 38.378 67.8595 37.2794C66.024 36.2512 64.5174 34.6872 63.5254 32.7799C62.4832 30.7471 61.9581 28.4709 61.9998 26.1675C61.9575 23.7709 62.537 21.4068 63.6776 19.3241C64.7667 17.3625 66.364 15.7589 68.2872 14.6962C70.3135 13.5848 72.576 13.0215 74.8665 13.0581C77.157 13.0215 79.4195 13.5848 81.4458 14.6962C83.3687 15.7579 84.965 17.3618 86.0514 19.3241C87.1952 21.4056 87.7764 23.7703 87.7332 26.1675C87.7915 28.9098 87.0222 31.6023 85.5332 33.8663C84.0995 36.0619 81.9927 37.6259 79.213 38.5583C77.5024 39.16 76.0302 39.6889 74.7966 40.1451C73.563 40.6014 72.5185 41.0291 71.6632 41.4283V41.4881C73.7927 40.8672 75.9939 40.5521 78.2055 40.5515C80.775 40.5158 83.3304 40.9501 85.7553 41.8346V47.0484C83.5316 46.0808 81.2219 45.343 78.8593 44.8457ZM80.9154 32.7799C82.4177 31.2059 83.1688 29.0018 83.1688 26.1675C83.1688 23.3332 82.4177 21.1304 80.9154 19.5593C79.4131 17.9853 77.405 17.1983 74.8912 17.1983C72.3773 17.1983 70.3665 17.9853 68.8588 19.5593C67.3538 21.1333 66.6026 23.336 66.6054 26.1675C66.6081 28.9989 67.3592 31.2031 68.8588 32.7799C70.3556 34.351 72.3636 35.1366 74.883 35.1366C77.4023 35.1366 79.4131 34.351 80.9154 32.7799Z" fill="#89C28C"/>
<path d="M94.4155 37.0998C93.1682 35.6513 92.5445 33.5327 92.5445 30.744V20.1538H96.7347V30.2051C96.7347 31.933 97.1459 33.2475 97.9683 34.1486C98.7907 35.0468 99.9709 35.5001 101.517 35.5001C102.251 35.5359 102.983 35.4134 103.669 35.1403C104.355 34.8672 104.979 34.4495 105.502 33.9133C106.005 33.3555 106.397 32.6983 106.652 31.9806C106.908 31.2629 107.023 30.4992 106.99 29.7346V20.1538H111.18V38.7764H106.986L107.471 33.3616H107.401C107.004 35.096 106.044 36.635 104.683 37.72C103.258 38.7834 101.535 39.3277 99.7817 39.2683C97.4516 39.2768 95.6628 38.554 94.4155 37.0998Z" fill="#89C28C"/>
<path d="M120.646 38.0365C119.111 37.2824 117.824 36.0743 116.946 34.5635C116.076 33.0066 115.633 31.2312 115.667 29.4309C115.631 27.6363 116.057 25.8645 116.9 24.2983C117.719 22.8274 118.932 21.6367 120.391 20.8724C122.009 20.0313 123.798 19.6115 125.606 19.6491C128.621 19.6491 130.965 20.5502 132.637 22.3523C134.309 24.1543 135.14 26.6265 135.129 29.7688L120.326 31.9074C121.132 34.3567 123.233 35.5814 126.629 35.5814C129.081 35.5395 131.506 35.0532 133.797 34.1443V37.8868C132.669 38.3461 131.501 38.6927 130.31 38.9219C129.012 39.1612 127.696 39.2757 126.379 39.264C124.402 39.3228 122.44 38.9025 120.646 38.0365ZM130.927 27.2153C130.791 26.1119 130.243 25.1085 129.401 24.4224C128.546 23.7124 127.334 23.3574 125.766 23.3574C123.94 23.3574 122.543 23.8264 121.576 24.7646C120.608 25.7027 120.076 27.0471 119.98 28.7979L130.927 27.2153Z" fill="#89C28C"/>
<path d="M145.134 38.2888C143.991 37.6301 143.107 36.5024 142.482 34.9056C141.857 33.3088 141.545 31.1403 141.548 28.4001V24.1871L137.74 23.9733V20.1538L141.548 20.3677V16.3001H145.738V20.4404H146.881C149.214 20.4404 151.956 20.3448 155.106 20.1538V23.9733C151.964 24.1672 149.223 24.2627 146.881 24.2598H145.738V28.4386C145.738 31.0305 146.049 32.884 146.672 33.9989C146.966 34.5326 147.397 34.9704 147.917 35.2628C148.437 35.5553 149.026 35.6908 149.616 35.6541C150.028 35.6796 150.44 35.6168 150.828 35.4696C151.216 35.3225 151.57 35.0941 151.869 34.7987C152.14 34.498 152.349 34.144 152.486 33.7575C152.622 33.3711 152.682 32.9601 152.663 32.5489C152.663 30.7212 151.752 29.1244 149.929 27.7585L152.77 25.3462C153.996 26.2527 155.037 27.4025 155.833 28.7294C156.533 29.8826 156.91 31.2154 156.923 32.5789C156.961 33.4957 156.803 34.4099 156.458 35.2549C156.114 36.0998 155.593 36.8543 154.933 37.4633C153.606 38.6752 151.776 39.2811 149.443 39.2811C147.949 39.3384 146.465 38.9968 145.134 38.2888Z" fill="#89C28C"/>
<path d="M159.592 38.631L169.979 23.9733H160.595V20.1538H176.838V20.2992L166.517 34.957H176.456V38.7764H159.596L159.592 38.631Z" fill="#89C28C"/>
<path d="M181.32 37.7328C180.748 37.2019 180.297 36.5446 180 35.809C179.703 35.0734 179.568 34.2781 179.605 33.4813C179.572 32.631 179.736 31.7849 180.082 31.0138C180.428 30.2428 180.947 29.5694 181.596 29.0502C182.922 27.9667 184.821 27.4264 187.291 27.4292H193.282C193.304 26.8504 193.196 26.2742 192.968 25.7459C192.74 25.2175 192.397 24.7514 191.966 24.3839C191.111 23.6767 189.877 23.3232 188.265 23.3232C186.094 23.3232 183.627 23.9719 180.864 25.2693V21.3044C183.452 20.2645 186.195 19.7043 188.969 19.6491C191.691 19.6491 193.791 20.362 195.268 21.7877C196.746 23.2134 197.485 25.2422 197.485 27.874V38.7764H193.286L193.739 33.3616H193.669C193.236 35.1036 192.255 36.6443 190.881 37.7371C189.464 38.7878 187.755 39.3257 186.016 39.2683C184.031 39.2769 182.466 38.765 181.32 37.7328ZM190.169 34.957C191.056 34.5506 191.835 33.9269 192.439 33.1392C192.983 32.4409 193.282 31.5702 193.286 30.6713V30.3676H187.365C184.963 30.3676 183.763 31.223 183.763 32.9339C183.74 33.3207 183.807 33.7075 183.958 34.0618C184.109 34.416 184.34 34.7274 184.63 34.9698C185.376 35.4877 186.265 35.7343 187.159 35.6712C188.201 35.6675 189.229 35.4235 190.169 34.957Z" fill="#89C28C"/>
<path d="M202.81 13.5628L207 12.733V38.7765H202.81V13.5628Z" fill="#89C28C"/>
<path d="M62 0.295105H65.3555C66.6425 0.295105 67.5883 0.52607 68.1846 0.983723C68.4855 1.22417 68.7247 1.5381 68.8811 1.89771C69.0374 2.25731 69.1061 2.65149 69.081 3.0453C69.0876 3.47199 68.9638 3.88985 68.7274 4.23862C68.4875 4.58633 68.17 4.86817 67.8021 5.05983C67.4353 5.2578 67.034 5.37707 66.622 5.41055V5.43621C67.0479 5.45152 67.4593 5.60064 67.8021 5.86393C68.1072 6.15232 68.3473 6.50721 68.5053 6.90327L69.5128 9.24286H67.7281L66.9797 7.30104C66.8493 6.91204 66.6048 6.57544 66.2807 6.33869C65.916 6.11725 65.4976 6.0103 65.0758 6.03074H63.5749V9.24286H62V0.295105ZM66.9345 4.42681C67.1236 4.29175 67.2749 4.10703 67.3731 3.89143C67.4714 3.67583 67.513 3.43702 67.4937 3.19928C67.5145 2.97375 67.4775 2.74651 67.3865 2.54067C67.2955 2.33482 67.1538 2.15771 66.9756 2.02734C66.426 1.7464 65.8137 1.62521 65.2033 1.67662H63.5749V4.79464H65.1005C65.7324 4.84332 66.3653 4.71637 66.9345 4.42681Z" fill="#4A9B98"/>
<path d="M72.1486 8.98198C71.6061 8.71143 71.1516 8.28176 70.841 7.74589C70.5305 7.19535 70.3726 6.56623 70.3845 5.92811C70.3741 5.29374 70.5259 4.66787 70.8245 4.11461C71.1101 3.58768 71.5394 3.16054 72.0581 2.88707C72.6309 2.59032 73.2647 2.4435 73.9044 2.45936C74.3604 2.43332 74.8167 2.50534 75.2448 2.67092C75.6728 2.83649 76.0634 3.09208 76.3923 3.42171C76.698 3.76647 76.9353 4.17064 77.0906 4.61103C77.2458 5.05141 77.316 5.51935 77.2969 5.98799L72.0211 6.7536C72.2953 7.65464 73.0491 8.10659 74.2828 8.10945C75.1536 8.09458 76.0151 7.92086 76.8281 7.59619V8.92638C76.4289 9.09099 76.016 9.21698 75.5945 9.30277C75.1332 9.38902 74.6651 9.43054 74.1964 9.4268C73.49 9.44465 72.7891 9.29242 72.1486 8.98198ZM75.8207 5.30365C75.7055 4.27999 75.0832 3.76816 73.9538 3.76816C73.6797 3.74828 73.4046 3.78572 73.1447 3.87829C72.8848 3.97085 72.6454 4.11665 72.4405 4.30708C72.2573 4.51704 72.116 4.76282 72.025 5.0301C71.9339 5.29738 71.8949 5.58083 71.9101 5.86395L75.8207 5.30365Z" fill="#4A9B98"/>
<path d="M78.8348 2.63473H80.3193L80.1466 4.55517H80.1754C80.3344 3.92574 80.6993 3.37367 81.2075 2.99401C81.7335 2.6161 82.3613 2.42143 83.0004 2.43799C83.5665 2.42394 84.1256 2.57189 84.6164 2.8657C85.0906 3.16059 85.4732 3.59118 85.7185 4.10607C85.995 4.65922 86.1363 5.27474 86.1297 5.89818C86.1411 6.54001 85.9878 7.17339 85.6856 7.73307C85.395 8.26029 84.9674 8.69166 84.4519 8.97772C83.8777 9.2835 83.238 9.43217 82.5933 9.40971C82.1854 9.41248 81.7798 9.34602 81.3926 9.21296C81.0038 9.06852 80.6411 8.85745 80.3193 8.5885V11.8049H78.8348V2.63473ZM84.0284 7.51494C84.2213 7.30536 84.3705 7.05664 84.4667 6.78434C84.5629 6.51204 84.6041 6.22201 84.5876 5.9324C84.6046 5.64468 84.5637 5.35643 84.4674 5.08613C84.3711 4.81582 84.2215 4.56942 84.0284 4.36269C83.8159 4.16584 83.5681 4.01461 83.2992 3.91772C83.0304 3.82083 82.7457 3.78018 82.4617 3.79811C81.8856 3.76196 81.3192 3.96501 80.8868 4.36269C80.6917 4.56838 80.5404 4.8144 80.4426 5.08482C80.3449 5.35523 80.3029 5.644 80.3193 5.9324C80.3018 6.22348 80.3433 6.51513 80.441 6.78848C80.5388 7.06183 80.6906 7.31078 80.8868 7.51922C81.3192 7.9169 81.8856 8.11995 82.4617 8.0838C82.746 8.10092 83.0307 8.05948 83.2996 7.96186C83.5684 7.86424 83.8161 7.71236 84.0284 7.51494Z" fill="#4A9B98"/>
<path d="M88.6997 8.75956C88.2885 8.33185 88.0911 7.60901 88.0911 6.621V3.99056H87.1083V2.89134H87.207C87.5684 2.88151 87.9126 2.72852 88.1693 2.46363C88.436 2.16758 88.6071 1.79223 88.6586 1.39007L88.6833 1.28314H89.5797V2.65182H92.3471V3.99056H89.5797V6.4713C89.5372 6.90451 89.6436 7.33938 89.8799 7.69883C90.0144 7.83118 90.1747 7.93179 90.35 7.99379C90.5253 8.0558 90.7114 8.07773 90.8956 8.05811C91.4302 8.03987 91.9594 7.94044 92.4664 7.76299V9.1445C91.8704 9.34002 91.2491 9.43955 90.6242 9.43963C90.2757 9.46959 89.925 9.42468 89.594 9.30769C89.2629 9.1907 88.9585 9.00412 88.6997 8.75956Z" fill="#4A9B98"/>
<path d="M94.0742 1.54833C93.9867 1.46847 93.9171 1.36965 93.8702 1.25882C93.8233 1.14799 93.8003 1.02782 93.8028 0.906764C93.8013 0.788354 93.8248 0.671047 93.8717 0.56314C93.9186 0.455233 93.9877 0.35936 94.0742 0.282303C94.2602 0.109184 94.5032 0.0172752 94.7527 0.0256755C95.0032 0.0187784 95.2469 0.110423 95.4353 0.282303C95.5244 0.357725 95.5962 0.45297 95.6453 0.561035C95.6944 0.669101 95.7196 0.787239 95.719 0.906764C95.7216 1.02824 95.6982 1.1488 95.6506 1.25975C95.6029 1.37069 95.5322 1.46926 95.4435 1.54833C95.2552 1.72021 95.0114 1.81186 94.7609 1.80496C94.5086 1.8156 94.2623 1.72354 94.0742 1.54833ZM94.0125 2.63472H95.5011V9.24716H94.0166L94.0125 2.63472Z" fill="#4A9B98"/>
<path d="M97.4749 0.295122L98.9593 0V9.24715H97.4749V0.295122Z" fill="#4A9B98"/>
<path d="M101.168 8.87503C100.964 8.68651 100.804 8.45308 100.699 8.19183C100.593 7.93059 100.546 7.64815 100.559 7.3652C100.545 7.0722 100.6 6.7801 100.719 6.5141C100.838 6.24809 101.017 6.01615 101.242 5.83827C101.808 5.44202 102.485 5.25111 103.166 5.29507H105.415C105.425 5.08004 105.388 4.86547 105.308 4.66711C105.228 4.46876 105.105 4.29165 104.951 4.1488C104.568 3.86663 104.103 3.72929 103.635 3.75958C102.72 3.79547 101.824 4.03158 101.003 4.45248V3.0453C101.922 2.67429 102.896 2.47449 103.881 2.45506C104.693 2.40046 105.495 2.66964 106.123 3.20783C106.394 3.48994 106.604 3.82883 106.739 4.20199C106.875 4.57514 106.932 4.97401 106.908 5.37206V9.24714H105.419L105.58 7.32671H105.555C105.402 7.9466 105.053 8.49494 104.564 8.88358C104.058 9.25214 103.45 9.43704 102.833 9.40967C102.234 9.44813 101.642 9.25805 101.168 8.87503ZM104.309 7.89129C104.63 7.74775 104.913 7.52453 105.132 7.24117C105.325 6.98981 105.431 6.67773 105.432 6.3558V6.17616H103.318C102.986 6.15426 102.657 6.24264 102.376 6.42851C102.268 6.5137 102.182 6.62547 102.125 6.75384C102.068 6.88221 102.043 7.02319 102.052 7.16418C102.043 7.30158 102.067 7.43905 102.121 7.56489C102.174 7.69073 102.256 7.80124 102.36 7.88701C102.625 8.06917 102.94 8.15629 103.256 8.13509C103.62 8.13431 103.979 8.05111 104.309 7.89129Z" fill="#4A9B98"/>
<path d="M108.795 2.63473H110.284L110.111 4.55516H110.136C110.279 3.93731 110.618 3.38752 111.098 2.99401C111.592 2.61923 112.193 2.42794 112.805 2.45081C113.003 2.45091 113.201 2.46808 113.397 2.50214V4.0419C113.218 3.95615 113.03 3.89158 112.838 3.84943C112.641 3.80822 112.442 3.78674 112.241 3.78527C111.982 3.77348 111.723 3.81627 111.48 3.91108C111.237 4.00589 111.015 4.15077 110.827 4.33702C110.645 4.52545 110.502 4.75135 110.409 5.00029C110.315 5.24922 110.273 5.5157 110.284 5.78269V9.23434H108.795V2.63473Z" fill="#4A9B98"/>
<path d="M114.91 1.5483C114.823 1.46843 114.753 1.36961 114.706 1.25878C114.659 1.14795 114.636 1.02779 114.639 0.906726C114.637 0.788316 114.661 0.671009 114.708 0.563102C114.755 0.455195 114.824 0.359322 114.91 0.282265C115.094 0.10863 115.336 0.0165575 115.584 0.0256375C115.835 0.0178848 116.079 0.109639 116.267 0.282265C116.355 0.358522 116.425 0.454137 116.473 0.562157C116.52 0.670177 116.544 0.787886 116.543 0.906726C116.545 1.02821 116.522 1.14876 116.474 1.25971C116.426 1.37065 116.356 1.46922 116.267 1.5483C116.079 1.72092 115.835 1.81268 115.584 1.80492C115.336 1.814 115.094 1.72193 114.91 1.5483ZM114.848 2.63469H116.333V9.24713H114.848V2.63469Z" fill="#4A9B98"/>
<path d="M119.734 8.98199C119.192 8.70569 118.734 8.27762 118.414 7.7459C118.087 7.20732 117.917 6.58198 117.924 5.94523C117.914 5.30931 118.081 4.68397 118.405 4.14456C118.727 3.61287 119.184 3.18372 119.725 2.90419C120.321 2.60869 120.972 2.45532 121.631 2.45532C122.291 2.45532 122.942 2.60869 123.537 2.90419C124.078 3.18232 124.534 3.61186 124.853 4.14456C125.173 4.68556 125.337 5.31037 125.326 5.94523C125.339 6.57538 125.178 7.19618 124.862 7.7343C124.547 8.27242 124.09 8.70536 123.545 8.98199C122.949 9.27226 122.298 9.4227 121.639 9.4227C120.981 9.4227 120.33 9.27226 119.734 8.98199ZM123.233 7.485C123.429 7.28185 123.583 7.03862 123.684 6.77065C123.785 6.50269 123.832 6.21581 123.821 5.92812C123.831 5.64312 123.783 5.35913 123.682 5.0941C123.581 4.82906 123.428 4.58875 123.233 4.38836C123.02 4.18452 122.769 4.02695 122.497 3.92487C122.224 3.82279 121.935 3.77824 121.646 3.79384C121.354 3.77795 121.063 3.82232 120.789 3.92438C120.514 4.02643 120.262 4.18413 120.046 4.38836C119.851 4.58875 119.698 4.82906 119.597 5.0941C119.496 5.35913 119.448 5.64312 119.458 5.92812C119.447 6.21581 119.494 6.50269 119.595 6.77065C119.696 7.03862 119.85 7.28185 120.046 7.485C120.262 7.68922 120.514 7.84693 120.789 7.94898C121.063 8.05103 121.354 8.0954 121.646 8.07952C121.935 8.09568 122.224 8.05182 122.496 7.95048C122.769 7.84914 123.019 7.69235 123.233 7.48928V7.485Z" fill="#4A9B98"/>
<path d="M131.358 11.9118C131.08 11.8521 130.805 11.7736 130.536 11.6766V10.3079C130.804 10.417 131.079 10.5084 131.358 10.5816C131.585 10.6415 131.819 10.6703 132.053 10.6672C132.295 10.6793 132.532 10.602 132.724 10.449C132.913 10.2624 133.047 10.0235 133.11 9.7604L133.221 9.33269L130.005 2.6347H131.556L133.879 7.6475L135.75 2.6347H137.251L134.673 9.23431C134.36 10.017 134.118 10.5773 133.953 10.9109C133.791 11.2603 133.53 11.5496 133.205 11.74C132.88 11.9304 132.507 12.0128 132.136 11.976C131.875 11.9799 131.615 11.9584 131.358 11.9118Z" fill="#4A9B98"/>
<path d="M144.85 0.295105H146.709L150.04 9.24713H148.444L147.889 7.67315H143.616L143.065 9.24713H141.478L144.85 0.295105ZM147.391 6.30447L145.747 1.72794L144.102 6.30447H147.391Z" fill="#4A9B98"/>
<path d="M150.615 11.8562V10.6158C150.802 10.674 150.996 10.7043 151.191 10.7057C151.32 10.7133 151.448 10.6876 151.565 10.6308C151.682 10.5741 151.784 10.4882 151.861 10.3806C152.039 10.0516 152.118 9.67461 152.087 9.29849V2.63472H153.576V9.26C153.61 9.95744 153.444 10.6496 153.099 11.2489C152.92 11.4999 152.683 11.6993 152.41 11.8281C152.136 11.9569 151.836 12.0107 151.536 11.9845C151.225 11.9895 150.914 11.9462 150.615 11.8562ZM152.149 1.54833C152.062 1.46825 151.993 1.36929 151.947 1.25844C151.901 1.14758 151.878 1.02753 151.882 0.906764C151.879 0.788644 151.902 0.671452 151.948 0.563521C151.995 0.455591 152.063 0.359575 152.149 0.282303C152.335 0.109184 152.578 0.0172752 152.828 0.0256755C153.078 0.0179227 153.322 0.109677 153.51 0.282303C153.598 0.35856 153.668 0.454175 153.716 0.562195C153.763 0.670215 153.787 0.787924 153.786 0.906764C153.788 1.02824 153.765 1.1488 153.717 1.25975C153.67 1.37069 153.599 1.46926 153.51 1.54833C153.322 1.72096 153.078 1.81271 152.828 1.80496C152.578 1.81336 152.335 1.72145 152.149 1.54833Z" fill="#4A9B98"/>
<path d="M156.989 8.98199C156.446 8.70684 155.989 8.27851 155.669 7.7459C155.344 7.20517 155.177 6.5783 155.188 5.94096C155.178 5.30503 155.345 4.67969 155.669 4.14028C155.99 3.60901 156.447 3.18106 156.989 2.90419C157.584 2.60869 158.235 2.45532 158.895 2.45532C159.554 2.45532 160.206 2.60869 160.801 2.90419C161.342 3.18232 161.798 3.61186 162.117 4.14456C162.436 4.68556 162.6 5.31037 162.59 5.94523C162.601 6.57768 162.437 7.2001 162.117 7.73845C161.798 8.2768 161.337 8.70843 160.788 8.98199C160.194 9.27031 159.545 9.41971 158.889 9.41971C158.232 9.41971 157.584 9.27031 156.989 8.98199ZM160.488 7.485C160.684 7.28185 160.838 7.03862 160.939 6.77065C161.04 6.50269 161.087 6.21581 161.076 5.92812C161.086 5.64312 161.039 5.35913 160.938 5.0941C160.836 4.82906 160.683 4.58875 160.488 4.38836C160.039 4.00428 159.476 3.7943 158.895 3.7943C158.314 3.7943 157.75 4.00428 157.301 4.38836C157.106 4.58875 156.953 4.82906 156.852 5.0941C156.751 5.35913 156.704 5.64312 156.713 5.92812C156.703 6.21581 156.749 6.50269 156.851 6.77065C156.952 7.03862 157.105 7.28185 157.301 7.485C157.75 7.86907 158.314 8.07905 158.895 8.07905C159.476 8.07905 160.039 7.86907 160.488 7.485Z" fill="#4A9B98"/>
<path d="M164.189 0.295122L165.678 0V9.24715H164.189V0.295122Z" fill="#4A9B98"/>
<path d="M169.074 8.98199C168.532 8.70569 168.075 8.27762 167.754 7.7459C167.429 7.20686 167.261 6.58155 167.269 5.94523C167.259 5.30931 167.426 4.68397 167.75 4.14456C168.072 3.61287 168.529 3.18372 169.07 2.90419C169.665 2.60869 170.317 2.45532 170.976 2.45532C171.636 2.45532 172.287 2.60869 172.882 2.90419C173.423 3.18232 173.879 3.61186 174.198 4.14456C174.518 4.68556 174.682 5.31037 174.671 5.94523C174.683 6.57584 174.522 7.19696 174.206 7.73513C173.889 8.27329 173.431 8.70597 172.886 8.98199C172.29 9.27226 171.639 9.4227 170.98 9.4227C170.322 9.4227 169.671 9.27226 169.074 8.98199ZM172.574 7.485C172.771 7.28248 172.925 7.03935 173.026 6.77123C173.127 6.50312 173.173 6.21593 173.162 5.92812C173.172 5.643 173.126 5.3587 173.024 5.09351C172.923 4.82832 172.77 4.58812 172.574 4.38836C172.358 4.18316 172.105 4.02516 171.829 3.92376C171.554 3.82236 171.262 3.77963 170.97 3.79811C170.679 3.78223 170.387 3.8266 170.113 3.92865C169.838 4.0307 169.586 4.18841 169.37 4.39264C169.175 4.59303 169.022 4.83334 168.921 5.09837C168.82 5.36341 168.773 5.6474 168.782 5.9324C168.772 6.22009 168.818 6.50697 168.92 6.77493C169.021 7.0429 169.174 7.28613 169.37 7.48928C169.586 7.6935 169.838 7.85121 170.113 7.95326C170.387 8.05531 170.679 8.09968 170.97 8.0838C171.262 8.10171 171.554 8.0583 171.83 7.95616C172.105 7.85402 172.358 7.69524 172.574 7.48928V7.485Z" fill="#4A9B98"/>
<path d="M177.266 8.75957C176.854 8.33186 176.657 7.60903 176.657 6.62101V3.99057H175.67V2.89135H175.769C176.131 2.88174 176.477 2.7288 176.735 2.46364C177.001 2.16719 177.17 1.79182 177.22 1.39008L177.245 1.2746H178.141V2.64328H180.909V3.99057H178.141V6.47131C178.103 6.9008 178.211 7.33076 178.446 7.68601C178.58 7.81802 178.739 7.91845 178.914 7.98045C179.088 8.04245 179.274 8.06457 179.457 8.04529C179.993 8.02746 180.524 7.92803 181.032 7.75017V9.13168C180.437 9.32033 179.817 9.41406 179.194 9.4097C178.311 9.4097 177.669 9.19299 177.266 8.75957Z" fill="#4A9B98"/>
<path d="M182.833 8.87506C182.63 8.68654 182.47 8.45311 182.365 8.19186C182.259 7.93061 182.211 7.64817 182.225 7.36523C182.21 7.07333 182.263 6.78194 182.379 6.51602C182.496 6.25009 182.673 6.01755 182.895 5.83829C183.462 5.44205 184.138 5.25113 184.819 5.2951H187.069C187.078 5.08007 187.042 4.8655 186.961 4.66714C186.881 4.46878 186.759 4.29168 186.604 4.14883C186.221 3.86666 185.757 3.72932 185.288 3.75961C184.374 3.7955 183.477 4.0316 182.656 4.45251V3.04533C183.575 2.67441 184.55 2.47461 185.535 2.45509C186.345 2.40116 187.145 2.67032 187.772 3.20786C188.043 3.48996 188.253 3.82886 188.389 4.20201C188.524 4.57517 188.582 4.97403 188.557 5.37209V9.24717H187.069L187.229 7.32674H187.204C187.051 7.94663 186.702 8.49497 186.213 8.88361C185.712 9.24856 185.11 9.43329 184.499 9.4097C183.9 9.44816 183.307 9.25807 182.833 8.87506ZM185.975 7.89132C186.296 7.74778 186.578 7.52455 186.797 7.24119C186.991 6.98984 187.097 6.67775 187.098 6.35583V6.17619H184.951C184.619 6.15429 184.29 6.24266 184.009 6.42854C183.901 6.51373 183.815 6.6255 183.758 6.75387C183.701 6.88224 183.676 7.02322 183.685 7.16421C183.676 7.30161 183.7 7.43907 183.754 7.56492C183.807 7.69076 183.889 7.80126 183.993 7.88704C184.258 8.0692 184.573 8.15631 184.889 8.13511C185.264 8.13939 185.635 8.05607 185.975 7.89132Z" fill="#4A9B98"/>
<path d="M190.465 2.63473H191.942L191.773 4.55516H191.798C191.94 3.93578 192.281 3.38524 192.764 2.99401C193.258 2.61923 193.859 2.42794 194.471 2.45081C194.669 2.45091 194.867 2.46808 195.063 2.50214V4.0419C194.884 3.95552 194.696 3.89093 194.503 3.84943C194.307 3.80801 194.107 3.78653 193.907 3.78527C193.648 3.77373 193.389 3.81663 193.146 3.91143C192.903 4.00623 192.681 4.15097 192.493 4.33702C192.307 4.52618 192.163 4.75384 192.068 5.00516C191.973 5.25647 191.93 5.52579 191.942 5.79553V9.24717H190.457L190.465 2.63473Z" fill="#4A9B98"/>
<path d="M196.576 1.54831C196.488 1.46844 196.419 1.36963 196.372 1.25879C196.325 1.14796 196.302 1.0278 196.305 0.906737C196.303 0.788327 196.327 0.67102 196.373 0.563113C196.42 0.455206 196.489 0.359334 196.576 0.282276C196.76 0.109423 197.002 0.0174706 197.25 0.0256488C197.501 0.017896 197.745 0.10965 197.933 0.282276C198.021 0.358533 198.091 0.454148 198.138 0.562168C198.186 0.670188 198.21 0.787897 198.208 0.906737C198.211 1.02822 198.188 1.14878 198.14 1.25972C198.092 1.37066 198.022 1.46923 197.933 1.54831C197.745 1.72093 197.501 1.81269 197.25 1.80493C197.002 1.81311 196.76 1.72116 196.576 1.54831ZM196.514 2.6347H198.003V9.24714H196.514V2.6347Z" fill="#4A9B98"/>
<path d="M201.399 8.98195C200.859 8.7036 200.402 8.27598 200.079 7.74586C199.755 7.20513 199.588 6.57825 199.598 5.94091C199.588 5.30499 199.755 4.67965 200.079 4.14024C200.402 3.61012 200.859 3.1825 201.399 2.90415C201.995 2.60481 202.65 2.45815 203.311 2.47644C203.968 2.45904 204.62 2.60571 205.211 2.90415C205.752 3.18227 206.208 3.61182 206.527 4.14452C206.847 4.68552 207.011 5.31033 207 5.94519C207.012 6.57626 206.85 7.1977 206.533 7.73591C206.216 8.27412 205.757 8.70654 205.211 8.98195C204.619 9.27744 203.968 9.42395 203.311 9.40966C202.651 9.42389 201.996 9.27743 201.399 8.98195ZM204.899 7.48495C205.099 7.285 205.258 7.04354 205.363 6.77614C205.469 6.50873 205.519 6.2213 205.511 5.93236C205.521 5.64695 205.474 5.36254 205.372 5.09737C205.27 4.8322 205.116 4.59214 204.919 4.39259C204.471 4.00808 203.909 3.79777 203.328 3.79777C202.747 3.79777 202.184 4.00808 201.737 4.39259C201.54 4.59214 201.386 4.8322 201.284 5.09737C201.182 5.36254 201.134 5.64695 201.144 5.93236C201.133 6.22045 201.18 6.50774 201.282 6.77584C201.384 7.04394 201.539 7.28692 201.737 7.48923C202.184 7.87374 202.747 8.08405 203.328 8.08405C203.909 8.08405 204.471 7.87374 204.919 7.48923L204.899 7.48495Z" fill="#4A9B98"/>
</g>
<path d="M5.88432 13.0767C7.03049 9.87356 8.80816 6.93621 11.1107 4.44078C11.1504 4.3972 11.2039 4.36875 11.2621 4.36025C11.3203 4.35175 11.3796 4.36372 11.43 4.39413C11.4804 4.42455 11.5188 4.47154 11.5387 4.52716C11.5586 4.58277 11.5588 4.6436 11.5393 4.69935C11.0104 6.28862 10.0759 9.35575 9.70796 12.2379C9.608 12.9723 9.55563 13.7124 9.55117 14.4536C9.56391 18.3295 10.6749 22.1214 12.7539 25.3851C13.2537 26.1839 13.8055 26.9487 14.4054 27.6744L14.4661 27.7206C16.9455 30.977 20.8548 33.3251 25.0067 33.3251C31.9724 33.3251 37.7089 27.338 38.4343 19.829C38.4488 19.6652 38.4208 19.5005 38.3531 19.3509C38.2854 19.2012 38.1804 19.0718 38.0482 18.9751C37.9161 18.8783 37.7612 18.8177 37.5988 18.7989C37.4364 18.7802 37.272 18.8041 37.1215 18.8682C27.4464 23.039 19.613 20.55 19.613 20.55C11.9407 17.2601 19.4249 8.69355 23.3175 4.88855C24.2451 3.97864 25.3426 3.26224 26.5467 2.78059C27.7508 2.29893 29.0377 2.06155 30.3334 2.0821C32.5933 2.12204 35.3863 2.61396 38.5096 4.49754C37.4873 5.76685 36.2035 6.7982 34.7466 7.52052C34.6479 7.56937 34.5606 7.63879 34.4906 7.72416C34.4206 7.80954 34.3695 7.90891 34.3406 8.01569C34.3117 8.12246 34.3058 8.23419 34.3232 8.34345C34.3405 8.45271 34.3808 8.55701 34.4414 8.6494C35.4302 10.1756 36.9501 10.3816 37.9953 10.3101C38.056 10.3101 38.1145 10.3101 38.173 10.2912L38.1856 10.3879C38.0646 10.4012 37.9477 10.4398 37.8423 10.5011C37.737 10.5625 37.6456 10.6453 37.574 10.7443C37.5023 10.8432 37.452 10.9562 37.4263 11.0758C37.4006 11.1954 37.4 11.3192 37.4246 11.439C37.47 11.6309 37.5366 11.817 37.6232 11.994C38.5535 13.907 41.1437 14.0962 42.5778 12.4439C43.5437 11.336 43.8552 9.94226 43.9534 9.05092C45.1367 10.3437 46.2345 11.7131 47.2398 13.1502C49.5959 16.4927 50.2962 21.2648 50.2962 24.5379C50.2962 39.3942 39.9521 47 28.2742 47C21.6743 47 15.6953 44.1915 11.3679 39.6423C6.84221 34.8594 4.33189 28.5015 4.3624 21.8996C4.3582 18.8922 4.87315 15.9069 5.88432 13.0767ZM44.3632 13.8229C44.3774 13.7869 44.3801 13.7473 44.3709 13.7096C44.3618 13.6719 44.3412 13.638 44.312 13.6126C44.2829 13.5872 44.2466 13.5715 44.2082 13.5678C44.1698 13.5641 44.1311 13.5724 44.0977 13.5917C42.6447 14.3947 41.1709 14.0395 40.4016 13.7431C40.3144 13.7108 40.2209 13.6994 40.1286 13.7099C40.0363 13.7204 39.9477 13.7525 39.8699 13.8035C39.7921 13.8546 39.7273 13.9232 39.6806 14.004C39.6338 14.0847 39.6066 14.1754 39.6009 14.2686C39.5969 14.4017 39.6067 14.5349 39.6301 14.6659C39.8915 16.0975 41.5597 16.6988 42.8036 15.8831C43.5234 15.3757 44.0684 14.6557 44.3632 13.8229ZM27.2059 11.5883C29.424 11.006 30.8874 9.19808 30.4693 7.56466C30.0512 5.93125 27.8917 5.06724 25.661 5.64955C23.4304 6.23186 21.9754 8.03346 22.3998 9.67318C22.8241 11.3129 24.9774 12.1706 27.2059 11.5883Z" fill="#4A9B98"/>
<path d="M44.0977 13.5917C44.1312 13.5724 44.1698 13.564 44.2082 13.5678C44.2466 13.5715 44.2829 13.5872 44.312 13.6126C44.3412 13.638 44.3618 13.6719 44.3709 13.7095C44.3801 13.7472 44.3774 13.7868 44.3632 13.8229C44.0684 14.6557 43.5234 15.3756 42.8036 15.8831C41.5597 16.6987 39.8915 16.0933 39.6302 14.6659C39.6067 14.5348 39.5969 14.4017 39.6009 14.2686C39.6066 14.1753 39.6339 14.0847 39.6806 14.004C39.7273 13.9232 39.7921 13.8546 39.8699 13.8035C39.9477 13.7524 40.0363 13.7204 40.1286 13.7099C40.2209 13.6994 40.3144 13.7107 40.4016 13.743C41.1772 14.0331 42.6447 14.3947 44.0977 13.5917Z" fill="#89C28C"/>
<path d="M43.5688 8.65359C43.6118 8.62985 43.6605 8.61856 43.7095 8.62099C43.7586 8.62342 43.8059 8.63946 43.8465 8.66734C43.887 8.69521 43.919 8.73383 43.939 8.77891C43.959 8.82398 43.9661 8.87375 43.9597 8.92268C43.9597 8.96262 43.9597 9.00676 43.9471 9.05511C43.8196 8.91637 43.6942 8.77762 43.5688 8.65359Z" fill="#89C28C"/>
<path d="M43.9471 9.0551C43.8489 9.94644 43.529 11.3402 42.5716 12.4481C41.1374 14.0941 38.5472 13.9196 37.6169 11.9982C37.5304 11.8212 37.4637 11.6351 37.4183 11.4432C37.3937 11.3233 37.3943 11.1996 37.42 11.08C37.4457 10.9603 37.496 10.8474 37.5677 10.7485C37.6393 10.6495 37.7307 10.5667 37.8361 10.5053C37.9414 10.444 38.0583 10.4054 38.1793 10.3921C38.2334 10.3847 38.2882 10.3847 38.3424 10.3921C39.5528 10.5056 41.7604 10.4194 43.4956 8.71034C43.5167 8.68974 43.5416 8.67333 43.5688 8.66199C43.6942 8.77761 43.8196 8.91635 43.9471 9.0551Z" fill="#89C28C"/>
<path d="M43.5688 8.65353C43.5416 8.66488 43.5167 8.68128 43.4956 8.70188C41.7604 10.4131 39.5528 10.4993 38.3424 10.3837C38.2882 10.3763 38.2334 10.3763 38.1793 10.3837L38.1667 10.287C38.8032 10.2001 39.3892 9.89132 39.8225 9.41453C40.5569 8.62667 41.132 7.70279 41.5158 6.69427C42.2329 7.31172 42.9181 7.96566 43.5688 8.65353Z" fill="#4A9B98"/>
<path d="M41.0831 0.23427C41.6266 1.36105 42.5465 3.91734 41.5158 6.69856C40.5775 5.88252 39.5718 5.1483 38.5096 4.50386C39.4973 3.26875 40.2102 1.83506 40.6002 0.299438C40.6105 0.246338 40.637 0.197816 40.6762 0.160705C40.7153 0.123595 40.7651 0.099764 40.8184 0.0925686C40.8717 0.0853733 40.9259 0.0951757 40.9734 0.120596C41.0209 0.146016 41.0593 0.185773 41.0831 0.23427Z" fill="#89C28C"/>
<path d="M41.5158 6.69855C41.132 7.70707 40.5569 8.63095 39.8225 9.41881C39.3892 9.89559 38.8032 10.2043 38.1668 10.2912C38.1082 10.2912 38.0497 10.3038 37.9891 10.3101C36.9438 10.3816 35.4302 10.1756 34.4351 8.6494C34.3755 8.55747 34.3359 8.45393 34.3188 8.34555C34.3017 8.23716 34.3076 8.12637 34.336 8.02042C34.3644 7.91447 34.4147 7.81573 34.4837 7.73068C34.5526 7.64562 34.6387 7.57616 34.7361 7.52682C36.193 6.8045 37.4768 5.77316 38.4992 4.50385C39.565 5.14779 40.5742 5.88202 41.5158 6.69855Z" fill="#89C28C"/>
<path d="M13.4417 8.09022C13.4914 8.07354 13.5449 8.07251 13.5952 8.08725C13.6454 8.10199 13.69 8.13181 13.723 8.17272C13.7559 8.21363 13.7757 8.26368 13.7796 8.31618C13.7835 8.36868 13.7714 8.42113 13.7448 8.46652C9.96302 14.8194 12.7539 25.3851 12.7539 25.3851C10.6749 22.1214 9.56392 18.3295 9.55118 14.4536C9.55624 13.7117 9.60932 12.9708 9.71006 12.2358C10.8954 9.45456 12.5323 8.4476 13.4417 8.09022Z" fill="#89C28C"/>
<path d="M7.12194 0.0261278C7.25783 -0.0747782 7.36445 0.137545 7.31427 0.305722C5.25089 7.26824 6.00976 12.3262 5.88433 13.0745C4.8703 15.9064 4.35322 18.8939 4.35613 21.9038C4.32562 28.5057 6.83595 34.8636 11.3616 39.6465C-10.5328 17.012 5.69827 1.06882 7.12194 0.0261278Z" fill="#587542"/>
<defs>
<clipPath id="clip0_29_2">
<rect width="145" height="47.027" fill="white" transform="translate(62)"/>
</clipPath>
</defs>
</svg>
