<svg width="274" height="89" viewBox="0 0 274 89" fill="none" xmlns="http://www.w3.org/2000/svg">
<g clip-path="url(#clip0_15_15)">
<path d="M31.8584 84.7429C27.7646 83.8872 23.6012 83.4433 19.4257 83.4174C16.9338 83.4017 14.443 83.5366 11.9661 83.8215V81.9222C11.9299 77.9242 15.7115 75.1331 23.3109 73.5489V73.4115C19.0532 73.5433 14.8357 72.5211 11.0725 70.4453C7.60389 68.5024 4.7571 65.5469 2.88252 61.9428C0.913139 58.1014 -0.0792303 53.8001 -0.0003033 49.4475C-0.0803812 44.9189 1.01482 40.4516 3.17002 36.5158C5.22808 32.8092 8.24642 29.7789 11.8806 27.7708C15.7097 25.6707 19.9851 24.6062 24.3133 24.6753C28.6415 24.6062 32.9169 25.6707 36.7459 27.7708C40.3795 29.7769 43.3958 32.8079 45.4488 36.5158C47.6103 40.4493 48.7085 44.9177 48.6269 49.4475C48.7371 54.6297 47.2833 59.7174 44.4697 63.9957C41.7604 68.1446 37.7794 71.1 32.5266 72.8619C29.2941 73.9989 26.5123 74.9984 24.1812 75.8605C21.8501 76.7226 19.8764 77.5308 18.2601 78.2852V78.3983C22.2842 77.225 26.4437 76.6294 30.6229 76.6283C35.4782 76.5609 40.3071 77.3816 44.8893 79.053V88.9053C40.6874 87.0768 36.3227 85.6826 31.8584 84.7429ZM35.7436 61.9428C38.5823 58.9685 40.0017 54.8034 40.0017 49.4475C40.0017 44.0917 38.5823 39.9293 35.7436 36.9604C32.9048 33.9861 29.1102 32.4989 24.3599 32.4989C19.6096 32.4989 15.8099 33.9861 12.9607 36.9604C10.1168 39.9347 8.69737 44.097 8.70255 49.4475C8.70773 54.798 10.1271 58.9631 12.9607 61.9428C15.7892 64.9117 19.5837 66.3961 24.3444 66.3961C29.105 66.3961 32.9048 64.9117 35.7436 61.9428Z" fill="#89C28C"/>
<path d="M61.2541 70.1058C58.8971 67.3686 57.7186 63.3652 57.7186 58.0955V38.0837H65.6366V57.0771C65.6366 60.3424 66.4137 62.8263 67.9677 64.529C69.5218 66.2263 71.7519 67.083 74.6736 67.083C76.0596 67.1507 77.4441 66.9192 78.74 66.4031C80.0358 65.8871 81.2149 65.0976 82.2031 64.0845C83.1551 63.0303 83.8945 61.7885 84.3776 60.4323C84.8607 59.0761 85.0778 57.633 85.016 56.1881V38.0837H92.934V73.2741H85.0082L85.9251 63.0419H85.793C85.0411 66.3192 83.2274 69.2275 80.6568 71.2777C77.9633 73.2872 74.7074 74.3157 71.3945 74.2035C66.9912 74.2197 63.6111 72.8538 61.2541 70.1058Z" fill="#89C28C"/>
<path d="M110.822 71.8759C107.921 70.4509 105.488 68.1681 103.828 65.3131C102.184 62.3711 101.348 59.0164 101.412 55.6143C101.345 52.2232 102.149 48.875 103.743 45.9156C105.289 43.1359 107.582 40.886 110.34 39.4417C113.396 37.8524 116.777 37.0591 120.193 37.1301C125.891 37.1301 130.32 38.8328 133.48 42.2381C136.64 45.6435 138.21 50.315 138.189 56.2528L110.215 60.294C111.738 64.9224 115.709 67.2367 122.127 67.2367C126.76 67.1574 131.343 66.2384 135.671 64.521V71.593C133.539 72.461 131.333 73.1159 129.082 73.549C126.63 74.0012 124.143 74.2176 121.653 74.1955C117.919 74.3066 114.21 73.5124 110.822 71.8759ZM130.248 51.4277C129.991 49.3426 128.955 47.4465 127.365 46.15C125.748 44.8083 123.459 44.1375 120.496 44.1375C117.046 44.1375 114.406 45.0238 112.578 46.7965C110.749 48.5693 109.744 51.1098 109.563 54.4182L130.248 51.4277Z" fill="#89C28C"/>
<path d="M157.094 72.3529C154.934 71.1082 153.263 68.9771 152.082 65.9598C150.901 62.9424 150.313 58.8446 150.318 53.6666V45.7055L143.123 45.3014V38.0839L150.318 38.488V30.8018H158.237V38.6254H160.397C164.805 38.6254 169.985 38.4449 175.937 38.0839V45.3014C170.001 45.6678 164.821 45.8483 160.397 45.8429H158.237V53.7393C158.237 58.6372 158.824 62.1395 160 64.2463C160.556 65.2549 161.371 66.0821 162.354 66.6348C163.337 67.1874 164.449 67.4435 165.564 67.3742C166.342 67.4222 167.122 67.3036 167.854 67.0255C168.587 66.7475 169.257 66.3159 169.822 65.7577C170.333 65.1895 170.729 64.5205 170.987 63.7902C171.244 63.06 171.358 62.2834 171.322 61.5064C171.322 58.0526 169.599 55.0352 166.155 52.4542L171.524 47.8958C173.84 49.6087 175.808 51.7815 177.313 54.2889C178.635 56.4679 179.348 58.9865 179.372 61.563C179.444 63.2955 179.144 65.023 178.494 66.6197C177.843 68.2164 176.858 69.6421 175.611 70.793C173.104 73.083 169.646 74.2279 165.238 74.2279C162.414 74.3362 159.61 73.6907 157.094 72.3529Z" fill="#89C28C"/>
<path d="M184.415 72.9993L204.043 45.3012H186.311V38.0837H217.004V38.3585L197.5 66.0566H216.281V73.2741H184.423L184.415 72.9993Z" fill="#89C28C"/>
<path d="M225.474 71.3021C224.392 70.2989 223.54 69.0568 222.979 67.6668C222.419 66.2768 222.164 64.7739 222.234 63.2683C222.171 61.6615 222.48 60.0625 223.134 58.6055C223.789 57.1486 224.769 55.8762 225.994 54.895C228.502 52.8475 232.089 51.8264 236.756 51.8318H248.078C248.119 50.7381 247.916 49.6493 247.484 48.6509C247.053 47.6525 246.405 46.7716 245.591 46.0772C243.975 44.741 241.644 44.0728 238.598 44.0728C234.495 44.0728 229.833 45.2986 224.611 47.7503V40.258C229.502 38.293 234.685 37.2344 239.927 37.1301C245.071 37.1301 249.039 38.4772 251.831 41.1713C254.623 43.8654 256.019 47.6991 256.019 52.6724V73.2742H248.086L248.94 63.042H248.808C247.991 66.3337 246.136 69.2451 243.54 71.3102C240.863 73.2956 237.634 74.3121 234.348 74.2036C230.597 74.2198 227.639 73.2526 225.474 71.3021ZM242.196 66.0567C243.871 65.2887 245.343 64.1102 246.485 62.6217C247.513 61.3021 248.078 59.6569 248.086 57.9582V57.3844H236.896C232.358 57.3844 230.089 59.0008 230.089 62.2337C230.047 62.9647 230.173 63.6956 230.459 64.3651C230.744 65.0345 231.18 65.623 231.729 66.0809C233.138 67.0595 234.818 67.5256 236.508 67.4064C238.476 67.3993 240.419 66.9383 242.196 66.0567Z" fill="#89C28C"/>
<path d="M266.082 25.629L274 24.061V73.2742H266.082V25.629Z" fill="#89C28C"/>
<path d="M0 0.557617H6.34065C8.77279 0.557617 10.56 0.994061 11.6867 1.85887C12.2553 2.31322 12.7074 2.90645 13.0028 3.58598C13.2983 4.26551 13.4281 5.01037 13.3806 5.75454C13.3931 6.56084 13.1591 7.35044 12.7124 8.0095C12.2592 8.66656 11.6592 9.19913 10.964 9.5613C10.2709 9.9354 9.51249 10.1608 8.73393 10.224V10.2725C9.53872 10.3015 10.3162 10.5832 10.964 11.0808C11.5405 11.6257 11.9943 12.2964 12.2928 13.0448L14.1965 17.4658H10.8242L9.40996 13.7964C9.16354 13.0613 8.7015 12.4253 8.08899 11.9779C7.39997 11.5595 6.60926 11.3574 5.81226 11.396H2.97606V17.4658H0V0.557617ZM9.32448 8.36512C9.68179 8.1099 9.96778 7.76085 10.1534 7.35343C10.339 6.94601 10.4176 6.49475 10.3813 6.0455C10.4206 5.61933 10.3507 5.18993 10.1787 4.80096C10.0067 4.41198 9.73882 4.07731 9.40219 3.83095C8.36369 3.30006 7.20652 3.07106 6.05314 3.1682H2.97606V9.0602H5.85888C7.0529 9.15218 8.24896 8.91229 9.32448 8.36512Z" fill="#4A9B98"/>
<path d="M19.1773 16.9728C18.1523 16.4615 17.2934 15.6496 16.7064 14.637C16.1198 13.5967 15.8213 12.4078 15.8438 11.202C15.8241 10.0033 16.1111 8.8206 16.6753 7.77512C17.215 6.77942 18.0262 5.97227 19.0064 5.4555C20.0888 4.89474 21.2864 4.6173 22.4953 4.64727C23.357 4.59806 24.2192 4.73415 25.028 5.04704C25.8369 5.35993 26.575 5.84289 27.1964 6.46579C27.7742 7.11726 28.2227 7.881 28.516 8.71318C28.8094 9.54536 28.9419 10.4296 28.9059 11.3152L18.9365 12.7619C19.4545 14.4646 20.8791 15.3186 23.2102 15.324C24.8557 15.2959 26.4837 14.9676 28.0201 14.3541V16.8677C27.2657 17.1788 26.4853 17.4169 25.6889 17.5789C24.8172 17.7419 23.9327 17.8204 23.047 17.8133C21.7121 17.8471 20.3877 17.5594 19.1773 16.9728ZM26.1163 10.022C25.8987 8.08764 24.7228 7.12046 22.5886 7.12046C22.0707 7.08289 21.5508 7.15364 21.0597 7.32856C20.5686 7.50347 20.1161 7.77898 19.729 8.13882C19.3828 8.53559 19.1158 9.00001 18.9438 9.50508C18.7717 10.0101 18.6979 10.5458 18.7267 11.0808L26.1163 10.022Z" fill="#4A9B98"/>
<path d="M31.812 4.97861H34.6172L34.2908 8.60756H34.3452C34.6456 7.41817 35.3353 6.37494 36.2956 5.65752C37.2896 4.9434 38.4757 4.57554 39.6835 4.60682C40.7533 4.58028 41.8097 4.85986 42.7372 5.41505C43.6333 5.97229 44.3562 6.78595 44.8197 7.75892C45.3423 8.80418 45.6092 9.96731 45.5967 11.1454C45.6184 12.3582 45.3287 13.5551 44.7575 14.6127C44.2084 15.609 43.4005 16.4241 42.4264 16.9647C41.3413 17.5425 40.1326 17.8234 38.9142 17.781C38.1435 17.7862 37.3771 17.6606 36.6452 17.4092C35.9107 17.1362 35.2252 16.7374 34.6172 16.2292V22.3071H31.812V4.97861ZM41.6261 14.2005C41.9905 13.8045 42.2725 13.3345 42.4543 12.8199C42.6362 12.3054 42.7139 11.7573 42.6828 11.2101C42.715 10.6664 42.6375 10.1217 42.4556 9.6109C42.2736 9.10011 41.9911 8.63449 41.6261 8.24386C41.2245 7.87186 40.7563 7.5861 40.2482 7.40301C39.7401 7.21992 39.2023 7.14311 38.6655 7.17699C37.5768 7.10868 36.5065 7.49236 35.6895 8.24386C35.3209 8.63252 35.035 9.09743 34.8502 9.60842C34.6655 10.1194 34.5861 10.6651 34.6172 11.2101C34.5841 11.7601 34.6625 12.3112 34.8472 12.8278C35.0319 13.3443 35.3189 13.8147 35.6895 14.2086C36.5065 14.9601 37.5768 15.3438 38.6655 15.2755C39.2027 15.3078 39.7408 15.2295 40.2489 15.045C40.7569 14.8606 41.2249 14.5736 41.6261 14.2005Z" fill="#4A9B98"/>
<path d="M50.4533 16.5527C49.6762 15.7444 49.3032 14.3785 49.3032 12.5115V7.5409H47.4461V5.46375H47.6326C48.3156 5.44517 48.9659 5.15608 49.4509 4.65552C49.9549 4.09609 50.2782 3.38681 50.3755 2.62686L50.4222 2.4248H52.1161V5.01114H57.3456V7.5409H52.1161V12.2286C52.0359 13.0473 52.2368 13.869 52.6834 14.5483C52.9375 14.7983 53.2405 14.9885 53.5718 15.1056C53.903 15.2228 54.2546 15.2642 54.6026 15.2272C55.6129 15.1927 56.6129 15.0048 57.5709 14.6695V17.2801C56.4447 17.6495 55.2707 17.8376 54.0898 17.8377C53.4313 17.8944 52.7687 17.8095 52.1431 17.5884C51.5175 17.3674 50.9423 17.0148 50.4533 16.5527Z" fill="#4A9B98"/>
<path d="M60.6091 2.92591C60.4438 2.77499 60.3122 2.58826 60.2236 2.37882C60.135 2.16939 60.0916 1.94232 60.0963 1.71356C60.0935 1.48981 60.1379 1.26814 60.2266 1.06423C60.3152 0.860322 60.4458 0.679156 60.6091 0.533545C60.9607 0.20641 61.4198 0.0327334 61.8913 0.0486071C62.3646 0.035574 62.8252 0.20875 63.1811 0.533545C63.3496 0.676066 63.4852 0.856046 63.578 1.06025C63.6708 1.26446 63.7184 1.4877 63.7173 1.71356C63.7222 1.94311 63.678 2.17093 63.588 2.38058C63.4979 2.59022 63.3643 2.77648 63.1967 2.92591C62.8408 3.2507 62.3801 3.42388 61.9068 3.41084C61.4301 3.43094 60.9646 3.25699 60.6091 2.92591ZM60.4926 4.97881H63.3055V17.474H60.5004L60.4926 4.97881Z" fill="#4A9B98"/>
<path d="M67.0353 0.557679L69.8404 0V17.4739H67.0353V0.557679Z" fill="#4A9B98"/>
<path d="M74.0131 16.7709C73.629 16.4146 73.3263 15.9735 73.1273 15.4799C72.9284 14.9862 72.8381 14.4525 72.8631 13.9178C72.8371 13.3641 72.9409 12.8122 73.1656 12.3095C73.3903 11.8069 73.7292 11.3686 74.153 11.0324C75.2237 10.2837 76.5018 9.9229 77.7895 10.006H82.0399C82.0584 9.59965 81.9891 9.19418 81.8371 8.81935C81.6852 8.44452 81.4545 8.10986 81.1619 7.83992C80.4381 7.30672 79.5606 7.04719 78.6754 7.10443C76.9476 7.17225 75.253 7.61841 73.7023 8.41377V5.75469C75.4384 5.05361 77.2796 4.67606 79.1416 4.63933C80.6757 4.53616 82.1901 5.04482 83.3765 6.06182C83.8887 6.59489 84.286 7.23529 84.5419 7.94042C84.7978 8.64556 84.9064 9.39927 84.8606 10.1515V17.474H82.0477L82.3508 13.8451H82.3041C82.0149 15.0165 81.3553 16.0526 80.4315 16.787C79.4758 17.4835 78.326 17.8329 77.1601 17.7811C76.0279 17.8538 74.909 17.4946 74.0131 16.7709ZM79.9497 14.9119C80.5565 14.6407 81.0901 14.2189 81.5038 13.6834C81.8692 13.2085 82.0692 12.6187 82.071 12.0104V11.6709H78.077C77.4503 11.6296 76.8271 11.7965 76.2976 12.1478C76.0929 12.3088 75.9297 12.52 75.8226 12.7626C75.7155 13.0051 75.6678 13.2715 75.6838 13.5379C75.668 13.7976 75.7128 14.0574 75.8143 14.2952C75.9157 14.5329 76.0709 14.7418 76.2665 14.9039C76.7669 15.2481 77.3618 15.4127 77.9605 15.3726C78.6479 15.3712 79.3267 15.2139 79.9497 14.9119Z" fill="#4A9B98"/>
<path d="M88.4272 4.97869H91.2401L90.9137 8.60764H90.9604C91.2315 7.44013 91.8718 6.40121 92.7786 5.65761C93.7127 4.94941 94.8483 4.58795 96.0034 4.63115C96.3783 4.63134 96.7525 4.66378 97.1223 4.72814V7.63777C96.7843 7.47572 96.4298 7.35372 96.0655 7.27407C95.6946 7.1962 95.3172 7.1556 94.9388 7.15283C94.4487 7.13055 93.9594 7.21141 93.5001 7.39057C93.0408 7.56972 92.6209 7.84348 92.2658 8.19545C91.9215 8.5515 91.6524 8.97838 91.4758 9.44878C91.2992 9.91918 91.2189 10.4227 91.2401 10.9273V17.4497H88.4272V4.97869Z" fill="#4A9B98"/>
<path d="M99.9818 2.92582C99.8164 2.7749 99.6849 2.58817 99.5963 2.37874C99.5077 2.1693 99.4642 1.94223 99.4689 1.71348C99.4661 1.48972 99.5106 1.26805 99.5992 1.06414C99.6878 0.860236 99.8184 0.679071 99.9818 0.53346C100.33 0.205349 100.787 0.0313637 101.256 0.0485218C101.73 0.0338718 102.191 0.207255 102.546 0.53346C102.712 0.677559 102.844 0.858238 102.934 1.06236C103.024 1.26648 103.07 1.48891 103.067 1.71348C103.072 1.94303 103.027 2.17084 102.937 2.38049C102.847 2.59014 102.714 2.77639 102.546 2.92582C102.191 3.25202 101.73 3.42541 101.256 3.41076C100.787 3.42792 100.33 3.25393 99.9818 2.92582ZM99.8652 4.97872H102.67V17.474H99.8652V4.97872Z" fill="#4A9B98"/>
<path d="M109.096 16.9728C108.072 16.4507 107.209 15.6418 106.602 14.637C105.985 13.6193 105.664 12.4376 105.677 11.2344C105.659 10.0327 105.974 8.85102 106.587 7.83173C107.195 6.82701 108.058 6.01607 109.081 5.48786C110.206 4.92945 111.436 4.63965 112.683 4.63965C113.929 4.63965 115.159 4.92945 116.284 5.48786C117.306 6.01342 118.167 6.82512 118.771 7.83173C119.374 8.85404 119.685 10.0347 119.664 11.2344C119.688 12.4251 119.384 13.5982 118.788 14.6151C118.192 15.632 117.329 16.4501 116.3 16.9728C115.172 17.5213 113.943 17.8056 112.698 17.8056C111.453 17.8056 110.224 17.5213 109.096 16.9728ZM115.709 14.144C116.08 13.7601 116.37 13.3005 116.561 12.7941C116.752 12.2878 116.841 11.7457 116.82 11.202C116.839 10.6635 116.749 10.1268 116.558 9.62602C116.367 9.1252 116.078 8.67109 115.709 8.29242C115.306 7.90723 114.833 7.60949 114.318 7.41659C113.803 7.22369 113.256 7.13952 112.71 7.16898C112.159 7.13897 111.609 7.22281 111.09 7.41565C110.571 7.6085 110.094 7.90651 109.687 8.29242C109.318 8.67109 109.029 9.1252 108.838 9.62602C108.647 10.1268 108.558 10.6635 108.576 11.202C108.556 11.7457 108.644 12.2878 108.835 12.7941C109.026 13.3005 109.316 13.7601 109.687 14.144C110.094 14.5299 110.571 14.8279 111.09 15.0208C111.609 15.2136 112.159 15.2975 112.71 15.2674C113.256 15.298 113.802 15.2151 114.317 15.0236C114.832 14.8321 115.305 14.5358 115.709 14.1521V14.144Z" fill="#4A9B98"/>
<path d="M131.063 22.5093C130.537 22.3965 130.017 22.2481 129.509 22.0647V19.4784C130.016 19.6846 130.535 19.8573 131.063 19.9957C131.492 20.1089 131.934 20.1632 132.377 20.1573C132.832 20.1802 133.281 20.0342 133.643 19.7451C134.001 19.3926 134.254 18.9411 134.374 18.4439L134.583 17.6356L128.507 4.97876H131.436L135.827 14.4512L139.362 4.97876H142.198L137.326 17.4497C136.736 18.9288 136.277 19.9876 135.967 20.618C135.66 21.2782 135.167 21.8249 134.553 22.1847C133.939 22.5445 133.234 22.7001 132.532 22.6305C132.04 22.6379 131.548 22.5973 131.063 22.5093Z" fill="#4A9B98"/>
<path d="M156.558 0.557617H160.07L166.364 17.4739H163.349L162.3 14.4996H154.227L153.186 17.4739H150.186L156.558 0.557617ZM161.36 11.9132L158.252 3.26519L155.144 11.9132H161.36Z" fill="#4A9B98"/>
<path d="M167.452 22.4042V20.0604C167.805 20.1703 168.172 20.2275 168.54 20.2301C168.784 20.2445 169.027 20.1959 169.248 20.0887C169.469 19.9815 169.661 19.8191 169.807 19.6159C170.143 18.9941 170.291 18.2818 170.234 17.571V4.97881H173.047V17.4983C173.111 18.8162 172.797 20.1242 172.146 21.2566C171.808 21.731 171.36 22.1078 170.843 22.3511C170.326 22.5944 169.758 22.6962 169.193 22.6467C168.604 22.6561 168.018 22.5744 167.452 22.4042ZM170.351 2.92591C170.186 2.77458 170.056 2.58758 169.969 2.3781C169.881 2.16862 169.839 1.94177 169.845 1.71356C169.841 1.49036 169.884 1.2689 169.971 1.06495C170.059 0.860999 170.188 0.679562 170.351 0.533545C170.702 0.20641 171.161 0.0327334 171.633 0.0486071C172.106 0.0339571 172.567 0.20734 172.923 0.533545C173.088 0.677644 173.221 0.858323 173.311 1.06244C173.401 1.26656 173.446 1.48899 173.443 1.71356C173.448 1.94311 173.404 2.17093 173.314 2.38058C173.224 2.59022 173.09 2.77648 172.923 2.92591C172.567 3.25211 172.106 3.42549 171.633 3.41084C171.161 3.42672 170.702 3.25304 170.351 2.92591Z" fill="#4A9B98"/>
<path d="M179.496 16.9728C178.471 16.4529 177.606 15.6435 177.002 14.637C176.389 13.6152 176.073 12.4306 176.093 11.2263C176.074 10.0246 176.39 8.84294 177.002 7.82365C177.609 6.81972 178.473 6.01105 179.496 5.48786C180.621 4.92945 181.852 4.63965 183.098 4.63965C184.344 4.63965 185.575 4.92945 186.7 5.48786C187.722 6.01342 188.583 6.82511 189.186 7.83173C189.79 8.85404 190.1 10.0347 190.08 11.2344C190.1 12.4295 189.791 13.6056 189.187 14.6229C188.584 15.6402 187.712 16.4559 186.676 16.9728C185.552 17.5176 184.327 17.7999 183.086 17.7999C181.846 17.7999 180.621 17.5176 179.496 16.9728ZM186.109 14.144C186.48 13.7601 186.77 13.3005 186.961 12.7941C187.152 12.2878 187.24 11.7457 187.22 11.202C187.238 10.6635 187.149 10.1268 186.958 9.62602C186.767 9.1252 186.478 8.67109 186.109 8.29242C185.261 7.56665 184.196 7.16986 183.098 7.16986C182 7.16986 180.935 7.56665 180.087 8.29242C179.718 8.67109 179.429 9.1252 179.238 9.62602C179.047 10.1268 178.957 10.6635 178.976 11.202C178.955 11.7457 179.044 12.2878 179.235 12.7941C179.426 13.3005 179.716 13.7601 180.087 14.144C180.935 14.8698 182 15.2666 183.098 15.2666C184.196 15.2666 185.261 14.8698 186.109 14.144Z" fill="#4A9B98"/>
<path d="M193.102 0.557679L195.915 0V17.4739H193.102V0.557679Z" fill="#4A9B98"/>
<path d="M202.334 16.9728C201.309 16.4507 200.446 15.6418 199.839 14.637C199.225 13.6184 198.906 12.4368 198.922 11.2344C198.904 10.0327 199.219 8.85102 199.832 7.83173C200.44 6.82701 201.303 6.01607 202.326 5.48786C203.451 4.92945 204.681 4.63965 205.927 4.63965C207.174 4.63965 208.404 4.92945 209.529 5.48786C210.551 6.01342 211.412 6.82512 212.015 7.83173C212.619 8.85404 212.929 10.0347 212.909 11.2344C212.933 12.426 212.628 13.5997 212.03 14.6167C211.432 15.6336 210.567 16.4512 209.537 16.9728C208.409 17.5213 207.18 17.8056 205.935 17.8056C204.69 17.8056 203.461 17.5213 202.334 16.9728ZM208.946 14.144C209.318 13.7613 209.609 13.3019 209.801 12.7952C209.992 12.2886 210.08 11.7459 210.057 11.202C210.078 10.6633 209.989 10.126 209.798 9.62491C209.606 9.1238 209.316 8.6699 208.946 8.29242C208.539 7.90467 208.061 7.6061 207.54 7.41449C207.019 7.22288 206.467 7.14214 205.916 7.17706C205.365 7.14705 204.815 7.23089 204.296 7.42374C203.777 7.61658 203.3 7.91459 202.893 8.3005C202.524 8.67918 202.235 9.13328 202.044 9.6341C201.853 10.1349 201.764 10.6716 201.782 11.2101C201.762 11.7538 201.85 12.2959 202.041 12.8022C202.232 13.3086 202.522 13.7682 202.893 14.1521C203.3 14.538 203.777 14.836 204.296 15.0289C204.815 15.2217 205.365 15.3055 205.916 15.2755C206.467 15.3094 207.02 15.2273 207.541 15.0343C208.061 14.8413 208.539 14.5413 208.946 14.1521V14.144Z" fill="#4A9B98"/>
<path d="M217.812 16.5525C217.035 15.7442 216.662 14.3783 216.662 12.5113V7.54071H214.797V5.46356H214.984C215.669 5.4454 216.322 5.1564 216.81 4.65533C217.311 4.09515 217.632 3.38582 217.727 2.62667L217.773 2.40845H219.467V4.99478H224.697V7.54071H219.467V12.2284C219.394 13.04 219.598 13.8525 220.042 14.5238C220.295 14.7733 220.597 14.963 220.927 15.0802C221.257 15.1974 221.607 15.2392 221.954 15.2027C222.967 15.169 223.969 14.9811 224.93 14.645V17.2556C223.804 17.6121 222.633 17.7892 221.457 17.781C219.788 17.781 218.574 17.3715 217.812 16.5525Z" fill="#4A9B98"/>
<path d="M228.333 16.7708C227.949 16.4146 227.647 15.9735 227.448 15.4798C227.249 14.9861 227.158 14.4524 227.183 13.9178C227.155 13.3662 227.255 12.8155 227.475 12.313C227.696 11.8105 228.03 11.3711 228.45 11.0324C229.521 10.2836 230.799 9.92285 232.086 10.0059H236.337C236.355 9.5996 236.286 9.19413 236.134 8.8193C235.982 8.44447 235.751 8.10981 235.459 7.83987C234.735 7.30667 233.857 7.04714 232.972 7.10438C231.244 7.1722 229.55 7.61836 227.999 8.41372V5.75464C229.735 5.05372 231.576 4.67617 233.438 4.63928C234.97 4.53738 236.482 5.04601 237.666 6.06177C238.178 6.59484 238.575 7.23524 238.831 7.94037C239.087 8.64551 239.196 9.39922 239.15 10.1514V17.474H236.337L236.64 13.845H236.593C236.304 15.0164 235.644 16.0526 234.721 16.787C233.773 17.4766 232.636 17.8257 231.48 17.7811C230.348 17.8538 229.229 17.4946 228.333 16.7708ZM234.27 14.9119C234.877 14.6406 235.41 14.2188 235.824 13.6834C236.189 13.2084 236.389 12.6187 236.391 12.0103V11.6709H232.335C231.708 11.6295 231.085 11.7965 230.556 12.1477C230.351 12.3087 230.188 12.5199 230.081 12.7625C229.973 13.0051 229.926 13.2715 229.942 13.5379C229.926 13.7975 229.971 14.0573 230.072 14.2951C230.174 14.5329 230.329 14.7417 230.525 14.9038C231.025 15.248 231.62 15.4126 232.219 15.3726C232.927 15.3806 233.628 15.2232 234.27 14.9119Z" fill="#4A9B98"/>
<path d="M242.755 4.97869H245.545L245.226 8.60765H245.273C245.542 7.43724 246.186 6.3969 247.099 5.65761C248.033 4.94941 249.168 4.58795 250.324 4.63115C250.698 4.63134 251.073 4.66378 251.443 4.72814V7.63777C251.105 7.47454 250.75 7.35249 250.386 7.27407C250.015 7.1958 249.638 7.1552 249.259 7.15283C248.769 7.13102 248.28 7.21209 247.821 7.39122C247.361 7.57035 246.941 7.84387 246.586 8.19545C246.236 8.55288 245.962 8.98309 245.783 9.45799C245.603 9.93288 245.522 10.4418 245.545 10.9515V17.4739H242.74L242.755 4.97869Z" fill="#4A9B98"/>
<path d="M254.302 2.92585C254.137 2.77494 254.005 2.58821 253.916 2.37877C253.828 2.16934 253.784 1.94227 253.789 1.71351C253.786 1.48976 253.831 1.26809 253.919 1.06418C254.008 0.860271 254.139 0.679106 254.302 0.533494C254.651 0.206861 255.107 0.0331026 255.576 0.0485566C256.05 0.0339065 256.511 0.20729 256.866 0.533494C257.032 0.677594 257.165 0.858273 257.255 1.06239C257.345 1.26651 257.39 1.48894 257.387 1.71351C257.392 1.94306 257.348 2.17088 257.258 2.38052C257.168 2.59017 257.034 2.77642 256.866 2.92585C256.511 3.25206 256.05 3.42544 255.576 3.41079C255.107 3.42625 254.651 3.25249 254.302 2.92585ZM254.185 4.97876H256.998V17.474H254.185V4.97876Z" fill="#4A9B98"/>
<path d="M263.417 16.9728C262.395 16.4468 261.532 15.6388 260.922 14.637C260.309 13.6152 259.993 12.4306 260.013 11.2263C259.995 10.0246 260.31 8.84294 260.922 7.82365C261.532 6.82191 262.395 6.01386 263.417 5.48786C264.542 4.92222 265.781 4.64508 267.03 4.67963C268.271 4.64677 269.503 4.92392 270.62 5.48786C271.642 6.01342 272.503 6.82512 273.106 7.83173C273.71 8.85404 274.02 10.0347 274 11.2344C274.023 12.4269 273.717 13.6012 273.118 14.6182C272.518 15.6353 271.652 16.4524 270.62 16.9728C269.501 17.5312 268.271 17.808 267.03 17.781C265.781 17.8079 264.544 17.5312 263.417 16.9728ZM270.029 14.144C270.409 13.7662 270.707 13.3099 270.907 12.8046C271.106 12.2993 271.202 11.7561 271.187 11.2101C271.206 10.6708 271.116 10.1334 270.923 9.63229C270.731 9.13122 270.439 8.67759 270.068 8.3005C269.222 7.57391 268.159 7.1765 267.061 7.1765C265.964 7.1765 264.9 7.57391 264.054 8.3005C263.683 8.67759 263.391 9.13122 263.199 9.63229C263.006 10.1334 262.916 10.6708 262.935 11.2101C262.914 11.7545 263.003 12.2974 263.196 12.804C263.388 13.3106 263.681 13.7698 264.054 14.1521C264.9 14.8787 265.964 15.2761 267.061 15.2761C268.159 15.2761 269.222 14.8787 270.068 14.1521L270.029 14.144Z" fill="#4A9B98"/>
</g>
<defs>
<clipPath id="clip0_15_15">
<rect width="274" height="88.8649" fill="white"/>
</clipPath>
</defs>
</svg>
