<svg width="182" height="242" viewBox="0 0 182 242" fill="none" xmlns="http://www.w3.org/2000/svg">
<path d="M21.2151 47.1452C25.3475 35.5969 31.7566 25.0067 40.0582 16.0098C40.2014 15.8527 40.3942 15.7501 40.6039 15.7194C40.8137 15.6888 41.0275 15.732 41.2092 15.8416C41.391 15.9513 41.5295 16.1207 41.6013 16.3212C41.6731 16.5217 41.6738 16.741 41.6033 16.942C39.6964 22.6719 36.3273 33.73 35.0007 44.1211C34.6403 46.7688 34.4515 49.4373 34.4354 52.1096C34.4814 66.0835 38.4868 79.7547 45.9825 91.5216C47.7846 94.4015 49.7737 97.1588 51.9369 99.7754L52.1554 99.9421C61.0946 111.682 75.1892 120.148 90.1581 120.148C115.272 120.148 135.954 98.5627 138.57 71.4897C138.622 70.8994 138.521 70.3056 138.277 69.7661C138.033 69.2266 137.654 68.7598 137.178 68.4111C136.701 68.0624 136.143 67.8436 135.557 67.7761C134.972 67.7087 134.379 67.7947 133.836 68.026C98.9541 83.0632 70.7121 74.0894 70.7121 74.0894C43.0505 62.2279 70.0337 31.3426 84.068 17.6242C87.4125 14.3436 91.3692 11.7607 95.7104 10.0242C100.052 8.28766 104.691 7.4318 109.363 7.5059C117.511 7.6499 127.58 9.42344 138.841 16.2144C135.155 20.7908 130.527 24.5091 125.274 27.1133C124.918 27.2895 124.603 27.5398 124.351 27.8476C124.099 28.1554 123.914 28.5137 123.81 28.8986C123.706 29.2836 123.685 29.6864 123.747 30.0803C123.81 30.4742 123.955 30.8503 124.174 31.1834C127.739 36.6859 133.218 37.4287 136.987 37.171C137.205 37.171 137.417 37.171 137.628 37.1028L137.673 37.4514C137.237 37.4993 136.815 37.6383 136.435 37.8596C136.056 38.0808 135.726 38.3794 135.468 38.7362C135.209 39.093 135.028 39.5001 134.935 39.9314C134.843 40.3628 134.841 40.8088 134.929 41.241C135.093 41.9328 135.333 42.6039 135.645 43.2419C138.999 50.139 148.338 50.8212 153.508 44.8639C156.991 40.8696 158.114 35.8446 158.468 32.631C162.734 37.292 166.692 42.2291 170.316 47.4105C178.811 59.4615 181.336 76.6663 181.336 88.4672C181.336 142.03 144.042 169.451 101.939 169.451C78.1438 169.451 56.5873 159.325 40.9853 142.924C24.6687 125.68 15.618 102.758 15.728 78.9552C15.7129 68.1125 17.5695 57.3494 21.2151 47.1452ZM159.945 49.8359C159.997 49.7058 160.006 49.563 159.973 49.4271C159.94 49.2912 159.866 49.1691 159.761 49.0775C159.656 48.9859 159.525 48.9295 159.386 48.916C159.248 48.9025 159.109 48.9326 158.988 49.0021C153.75 51.8974 148.436 50.6165 145.662 49.5478C145.348 49.4314 145.011 49.3905 144.678 49.4283C144.345 49.4662 144.026 49.5818 143.745 49.7659C143.465 49.95 143.231 50.1975 143.063 50.4886C142.894 50.7798 142.796 51.1065 142.775 51.4427C142.761 51.9225 142.796 52.4026 142.881 52.8751C143.823 58.0366 149.838 60.2042 154.322 57.2635C156.918 55.434 158.883 52.8382 159.945 49.8359ZM98.0873 41.7791C106.084 39.6797 111.36 33.1616 109.853 27.2725C108.345 21.3835 100.559 18.2684 92.5173 20.3678C84.4751 22.4673 79.2291 28.9627 80.7592 34.8745C82.2893 40.7863 90.0526 43.8786 98.0873 41.7791Z" fill="#4A9B98"/>
<path d="M158.988 49.0024C159.109 48.9328 159.248 48.9027 159.386 48.9162C159.525 48.9297 159.656 48.9862 159.761 49.0778C159.866 49.1693 159.94 49.2915 159.973 49.4274C160.006 49.5632 159.997 49.7061 159.945 49.8361C158.883 52.8385 156.918 55.4343 154.323 57.2638C149.838 60.2045 143.823 58.0217 142.881 52.8754C142.796 52.4029 142.761 51.9228 142.775 51.4429C142.796 51.1067 142.894 50.78 143.063 50.4889C143.231 50.1978 143.465 49.9503 143.745 49.7662C144.026 49.5821 144.345 49.4665 144.678 49.4286C145.011 49.3907 145.348 49.4317 145.662 49.5481C148.459 50.594 153.75 51.8977 158.988 49.0024Z" fill="#89C28C"/>
<path d="M157.081 31.2003C157.236 31.1146 157.412 31.074 157.589 31.0827C157.765 31.0915 157.936 31.1493 158.082 31.2498C158.228 31.3503 158.344 31.4896 158.416 31.6521C158.488 31.8146 158.514 31.994 158.491 32.1704C158.491 32.3144 158.491 32.4736 158.445 32.6479C157.986 32.1477 157.533 31.6474 157.081 31.2003Z" fill="#89C28C"/>
<path d="M158.445 32.6458C158.091 35.8594 156.938 40.8844 153.486 44.8787C148.315 50.8132 138.977 50.1842 135.623 43.2567C135.311 42.6187 135.07 41.9476 134.907 41.2558C134.818 40.8236 134.82 40.3776 134.913 39.9462C135.005 39.5149 135.187 39.1078 135.445 38.751C135.703 38.3942 136.033 38.0956 136.413 37.8744C136.792 37.6532 137.214 37.5141 137.65 37.4662C137.845 37.4397 138.043 37.4397 138.238 37.4662C142.602 37.8755 150.561 37.5647 156.817 31.4028C156.894 31.3286 156.983 31.2694 157.081 31.2285C157.533 31.6454 157.986 32.1456 158.445 32.6458Z" fill="#89C28C"/>
<path d="M157.081 31.1996C156.983 31.2405 156.894 31.2996 156.817 31.3739C150.561 37.5434 142.602 37.8541 138.238 37.4373C138.043 37.4107 137.845 37.4107 137.65 37.4373L137.605 37.0886C139.9 36.7754 142.012 35.6622 143.574 33.9433C146.222 31.1027 148.296 27.7718 149.68 24.1357C152.265 26.3619 154.735 28.7196 157.081 31.1996Z" fill="#4A9B98"/>
<path d="M148.119 0.842898C150.079 4.90536 153.395 14.1217 149.68 24.149C146.297 21.2069 142.671 18.5598 138.841 16.2363C142.402 11.7833 144.972 6.61432 146.378 1.07785C146.415 0.886406 146.511 0.711469 146.652 0.577671C146.793 0.443874 146.973 0.357956 147.165 0.332014C147.357 0.306073 147.553 0.341414 147.724 0.433062C147.895 0.52471 148.033 0.66805 148.119 0.842898Z" fill="#89C28C"/>
<path d="M149.68 24.1515C148.296 27.7875 146.222 31.1185 143.574 33.959C142.012 35.678 139.9 36.7911 137.605 37.1044C137.394 37.1044 137.183 37.1498 136.964 37.1726C133.196 37.4303 127.739 36.6875 124.151 31.185C123.936 30.8536 123.793 30.4803 123.732 30.0895C123.67 29.6987 123.691 29.2993 123.794 28.9173C123.896 28.5353 124.078 28.1793 124.326 27.8727C124.575 27.566 124.885 27.3156 125.236 27.1377C130.489 24.5335 135.118 20.8151 138.803 16.2388C142.646 18.5604 146.285 21.2076 149.68 24.1515Z" fill="#89C28C"/>
<path d="M48.4622 29.1672C48.6413 29.107 48.8343 29.1033 49.0155 29.1564C49.1967 29.2096 49.3575 29.3171 49.4763 29.4646C49.5951 29.6121 49.6663 29.7925 49.6804 29.9818C49.6945 30.1711 49.6508 30.3602 49.5551 30.5238C35.9203 53.4283 45.9825 91.5214 45.9825 91.5214C38.4869 79.7546 34.4814 66.0833 34.4355 52.1095C34.4537 49.4344 34.6451 46.7634 35.0083 44.1134C39.2819 34.0861 45.1835 30.4556 48.4622 29.1672Z" fill="#89C28C"/>
<path d="M25.6772 0.0942003C26.1671 -0.269602 26.5515 0.495899 26.3706 1.10224C18.9314 26.2046 21.6674 44.4402 21.2151 47.1384C17.5592 57.3484 15.6949 68.1195 15.7054 78.9712C15.5954 102.773 24.646 125.696 40.9627 142.94C-37.9747 61.3343 20.5443 3.8535 25.6772 0.0942003Z" fill="#587542"/>
<g clip-path="url(#clip0_29_3)">
<path d="M21.29 238.955C18.5737 238.387 15.8112 238.093 13.0406 238.076C11.3872 238.065 9.73451 238.155 8.09103 238.344V237.084C8.06697 234.431 10.5761 232.579 15.6186 231.528V231.436C12.7935 231.524 9.99506 230.846 7.4981 229.468C5.19658 228.179 3.30767 226.218 2.06384 223.827C0.757105 221.278 0.098644 218.424 0.151014 215.536C0.0978803 212.531 0.824575 209.567 2.2546 206.955C3.62017 204.496 5.62292 202.485 8.03431 201.153C10.575 199.759 13.4118 199.053 16.2837 199.099C19.1556 199.053 21.9924 199.759 24.533 201.153C26.944 202.484 28.9454 204.495 30.3076 206.955C31.7418 209.565 32.4705 212.53 32.4163 215.536C32.4895 218.974 31.5248 222.35 29.658 225.189C27.8603 227.942 25.2188 229.903 21.7334 231.072C19.5886 231.826 17.7428 232.489 16.196 233.061C14.6493 233.633 13.3397 234.17 12.2673 234.67V234.745C14.9373 233.967 17.6972 233.572 20.4702 233.571C23.6919 233.526 26.896 234.071 29.9364 235.18V241.717C27.1483 240.504 24.2522 239.579 21.29 238.955ZM23.8679 223.827C25.7515 221.853 26.6933 219.09 26.6933 215.536C26.6933 211.982 25.7515 209.22 23.8679 207.25C21.9843 205.277 19.4666 204.29 16.3146 204.29C13.1627 204.29 10.6415 205.277 8.75098 207.25C6.86393 209.224 5.92213 211.986 5.92557 215.536C5.92901 219.086 6.87081 221.85 8.75098 223.827C10.6277 225.797 13.1455 226.782 16.3043 226.782C19.4631 226.782 21.9843 225.797 23.8679 223.827Z" fill="#89C28C"/>
<path d="M40.7948 229.243C39.2309 227.427 38.4489 224.77 38.4489 221.274V207.996H43.7027V220.598C43.7027 222.765 44.2183 224.413 45.2495 225.543C46.2806 226.669 47.7604 227.237 49.699 227.237C50.6186 227.282 51.5373 227.129 52.3971 226.786C53.2569 226.444 54.0393 225.92 54.695 225.248C55.3267 224.548 55.8173 223.724 56.1378 222.824C56.4584 221.925 56.6024 220.967 56.5614 220.008V207.996H61.8152V231.345H56.5562L57.1646 224.556H57.077C56.5781 226.731 55.3746 228.66 53.669 230.021C51.8818 231.354 49.7214 232.036 47.5232 231.962C44.6015 231.973 42.3587 231.066 40.7948 229.243Z" fill="#89C28C"/>
<path d="M73.684 230.417C71.7593 229.472 70.1453 227.957 69.0437 226.063C67.9531 224.111 67.3984 221.885 67.4403 219.627C67.3958 217.377 67.9298 215.156 68.987 213.192C70.0132 211.348 71.5345 209.855 73.3643 208.897C75.3919 207.842 77.6355 207.316 79.9019 207.363C83.6829 207.363 86.6217 208.493 88.7185 210.752C90.8152 213.012 91.8567 216.111 91.8429 220.051L73.2818 222.733C74.2924 225.804 76.927 227.339 81.1858 227.339C84.2592 227.287 87.3004 226.677 90.1724 225.537V230.23C88.7579 230.806 87.2939 231.24 85.8002 231.528C84.1734 231.828 82.5234 231.971 80.8712 231.957C78.3932 232.03 75.9326 231.503 73.684 230.417ZM86.5736 216.85C86.4035 215.466 85.7163 214.208 84.6608 213.348C83.5884 212.457 82.0691 212.012 80.103 212.012C77.8138 212.012 76.0626 212.6 74.8492 213.777C73.6359 214.953 72.969 216.639 72.8487 218.834L86.5736 216.85Z" fill="#89C28C"/>
<path d="M104.387 230.734C102.954 229.908 101.845 228.494 101.062 226.492C100.278 224.49 99.8877 221.771 99.8912 218.335V213.053L95.1169 212.784V207.995L99.8912 208.264V203.164H105.145V208.355H106.578C109.503 208.355 112.941 208.235 116.89 207.995V212.784C112.951 213.028 109.514 213.147 106.578 213.144H105.145V218.383C105.145 221.633 105.535 223.957 106.315 225.355C106.684 226.024 107.225 226.573 107.877 226.94C108.529 227.306 109.267 227.476 110.007 227.43C110.523 227.462 111.041 227.383 111.527 227.199C112.013 227.014 112.457 226.728 112.832 226.358C113.171 225.981 113.434 225.537 113.605 225.052C113.776 224.568 113.852 224.052 113.827 223.537C113.827 221.245 112.685 219.243 110.399 217.531L113.962 214.506C115.498 215.642 116.804 217.084 117.803 218.748C118.68 220.194 119.153 221.865 119.169 223.574C119.217 224.724 119.018 225.87 118.586 226.93C118.154 227.989 117.501 228.935 116.673 229.699C115.01 231.218 112.716 231.978 109.79 231.978C107.917 232.05 106.057 231.621 104.387 230.734Z" fill="#89C28C"/>
<path d="M122.515 231.163L135.539 212.785H123.773V207.996H144.139V208.178L131.198 226.556H143.659V231.345H122.52L122.515 231.163Z" fill="#89C28C"/>
<path d="M149.759 230.037C149.041 229.371 148.475 228.547 148.103 227.625C147.731 226.702 147.562 225.705 147.609 224.706C147.567 223.64 147.772 222.579 148.206 221.612C148.64 220.646 149.291 219.801 150.104 219.15C151.768 217.792 154.148 217.114 157.245 217.118H164.757C164.784 216.392 164.649 215.67 164.363 215.007C164.077 214.345 163.647 213.76 163.107 213.299C162.035 212.413 160.488 211.969 158.467 211.969C155.745 211.969 152.651 212.783 149.186 214.41V209.438C152.431 208.134 155.871 207.432 159.348 207.363C162.762 207.363 165.395 208.257 167.247 210.044C169.1 211.832 170.026 214.376 170.026 217.675V231.345H164.762L165.329 224.556H165.242C164.7 226.74 163.469 228.672 161.746 230.042C159.97 231.359 157.827 232.034 155.647 231.962C153.158 231.973 151.195 231.331 149.759 230.037ZM160.854 226.556C161.966 226.047 162.942 225.265 163.7 224.277C164.382 223.401 164.757 222.31 164.762 221.183V220.802H157.338C154.327 220.802 152.821 221.875 152.821 224.02C152.793 224.505 152.877 224.99 153.066 225.434C153.255 225.878 153.545 226.268 153.909 226.572C154.844 227.222 155.959 227.531 157.08 227.452C158.386 227.447 159.675 227.141 160.854 226.556Z" fill="#89C28C"/>
<path d="M176.703 199.731L181.957 198.691V231.345H176.703V199.731Z" fill="#89C28C"/>
<path d="M0.151215 183.096H4.35839C5.97217 183.096 7.15802 183.386 7.90562 183.96C8.2829 184.261 8.58286 184.655 8.77892 185.106C8.97498 185.556 9.06108 186.051 9.02959 186.544C9.03788 187.079 8.88262 187.603 8.58619 188.041C8.28549 188.477 7.88736 188.83 7.42612 189.07C6.96619 189.319 6.46298 189.468 5.94639 189.51V189.542C6.48039 189.561 6.99628 189.748 7.42612 190.079C7.80864 190.44 8.10969 190.885 8.30777 191.382L9.57096 194.315H7.33332L6.39495 191.88C6.23145 191.393 5.92487 190.971 5.51846 190.674C5.06128 190.396 4.53662 190.262 4.00779 190.288H2.12591V194.315H0.151215V183.096ZM6.33824 188.277C6.57532 188.107 6.76508 187.876 6.88824 187.605C7.01139 187.335 7.06356 187.036 7.03943 186.738C7.06551 186.455 7.01914 186.17 6.90504 185.912C6.79093 185.654 6.61316 185.432 6.3898 185.268C5.70073 184.916 4.93292 184.764 4.16762 184.828H2.12591V188.738H4.03873C4.83099 188.799 5.6246 188.64 6.33824 188.277Z" fill="#4A9B98"/>
<path d="M12.8759 193.988C12.1957 193.649 11.6258 193.11 11.2363 192.438C10.8471 191.748 10.649 190.959 10.664 190.159C10.6509 189.364 10.8413 188.579 11.2157 187.885C11.5738 187.224 12.112 186.689 12.7624 186.346C13.4806 185.974 14.2753 185.79 15.0774 185.81C15.6492 185.777 16.2212 185.867 16.7579 186.075C17.2946 186.283 17.7844 186.603 18.1967 187.016C18.5801 187.449 18.8777 187.955 19.0723 188.508C19.267 189.06 19.3549 189.646 19.331 190.234L12.716 191.194C13.0598 192.324 14.005 192.89 15.5517 192.894C16.6436 192.875 17.7238 192.658 18.7432 192.25V193.918C18.2427 194.125 17.7249 194.283 17.1965 194.39C16.618 194.498 16.0312 194.55 15.4435 194.546C14.5577 194.568 13.679 194.377 12.8759 193.988ZM17.48 189.376C17.3357 188.093 16.5554 187.451 15.1393 187.451C14.7957 187.426 14.4507 187.473 14.1248 187.589C13.799 187.705 13.4987 187.888 13.2419 188.126C13.0122 188.39 12.8351 188.698 12.7209 189.033C12.6067 189.368 12.5577 189.724 12.5768 190.079L17.48 189.376Z" fill="#4A9B98"/>
<path d="M21.2593 186.03H23.1205L22.904 188.438H22.9401C23.1394 187.648 23.5971 186.956 24.2342 186.48C24.8938 186.006 25.6808 185.762 26.4822 185.783C27.192 185.765 27.8929 185.951 28.5084 186.319C29.1029 186.689 29.5826 187.229 29.8902 187.874C30.2369 188.568 30.414 189.34 30.4058 190.121C30.4201 190.926 30.2279 191.72 29.8489 192.422C29.4846 193.083 28.9485 193.624 28.3022 193.983C27.5822 194.366 26.7802 194.552 25.9717 194.524C25.4603 194.528 24.9518 194.444 24.4662 194.278C23.9788 194.097 23.524 193.832 23.1205 193.495V197.527H21.2593V186.03ZM27.7711 192.149C28.0129 191.886 28.2 191.574 28.3207 191.233C28.4413 190.891 28.493 190.527 28.4723 190.164C28.4936 189.804 28.4423 189.442 28.3215 189.103C28.2008 188.764 28.0133 188.455 27.7711 188.196C27.5047 187.949 27.194 187.76 26.8569 187.638C26.5198 187.517 26.1629 187.466 25.8067 187.488C25.0844 187.443 24.3742 187.698 23.832 188.196C23.5875 188.454 23.3978 188.763 23.2752 189.102C23.1526 189.441 23.0999 189.803 23.1205 190.164C23.0986 190.529 23.1506 190.895 23.2732 191.238C23.3958 191.58 23.5861 191.893 23.832 192.154C24.3742 192.653 25.0844 192.907 25.8067 192.862C26.1632 192.883 26.5202 192.831 26.8573 192.709C27.1944 192.587 27.505 192.396 27.7711 192.149Z" fill="#4A9B98"/>
<path d="M33.6282 193.709C33.1126 193.173 32.8651 192.267 32.8651 191.028V187.73H31.6329V186.351H31.7566C32.2098 186.339 32.6413 186.147 32.9631 185.815C33.2975 185.444 33.512 184.973 33.5766 184.469L33.6075 184.335H34.7315V186.051H38.2014V187.73H34.7315V190.84C34.6783 191.383 34.8116 191.928 35.1079 192.379C35.2765 192.545 35.4776 192.671 35.6974 192.749C35.9172 192.827 36.1505 192.854 36.3814 192.83C37.0517 192.807 37.7153 192.682 38.3509 192.46V194.192C37.6036 194.437 36.8247 194.562 36.0411 194.562C35.6042 194.599 35.1645 194.543 34.7494 194.396C34.3343 194.25 33.9527 194.016 33.6282 193.709Z" fill="#4A9B98"/>
<path d="M40.3669 184.668C40.2572 184.567 40.1698 184.444 40.1111 184.305C40.0523 184.166 40.0234 184.015 40.0266 183.863C40.0247 183.715 40.0542 183.568 40.113 183.432C40.1718 183.297 40.2585 183.177 40.3669 183.08C40.6001 182.863 40.9048 182.748 41.2176 182.758C41.5317 182.75 41.8373 182.865 42.0735 183.08C42.1852 183.175 42.2752 183.294 42.3368 183.43C42.3983 183.565 42.4299 183.713 42.4292 183.863C42.4324 184.016 42.4031 184.167 42.3434 184.306C42.2836 184.445 42.195 184.568 42.0838 184.668C41.8476 184.883 41.542 184.998 41.2279 184.989C40.9116 185.003 40.6027 184.887 40.3669 184.668ZM40.2895 186.03H42.156V194.321H40.2947L40.2895 186.03Z" fill="#4A9B98"/>
<path d="M44.6308 183.096L46.492 182.726V194.32H44.6308V183.096Z" fill="#4A9B98"/>
<path d="M49.2607 193.854C49.0058 193.617 48.805 193.325 48.673 192.997C48.5409 192.67 48.481 192.315 48.4976 191.961C48.4804 191.593 48.5493 191.227 48.6984 190.893C48.8475 190.56 49.0723 190.269 49.3535 190.046C50.0639 189.549 50.912 189.31 51.7665 189.365H54.5867C54.5989 189.095 54.553 188.826 54.4521 188.578C54.3513 188.329 54.1982 188.107 54.0041 187.928C53.5238 187.574 52.9416 187.402 52.3542 187.44C51.2078 187.485 50.0834 187.781 49.0545 188.309V186.544C50.2064 186.079 51.4281 185.828 52.6636 185.804C53.6815 185.736 54.6863 186.073 55.4735 186.748C55.8134 187.102 56.077 187.527 56.2468 187.994C56.4166 188.462 56.4887 188.962 56.4583 189.462V194.32H54.5919L54.7929 191.912H54.762C54.5701 192.69 54.1324 193.377 53.5194 193.864C52.8853 194.327 52.1224 194.558 51.3488 194.524C50.5976 194.572 49.8552 194.334 49.2607 193.854ZM53.1998 192.62C53.6024 192.44 53.9564 192.16 54.231 191.805C54.4734 191.49 54.6061 191.099 54.6073 190.695V190.47H51.9572C51.5414 190.442 51.1279 190.553 50.7765 190.786C50.6407 190.893 50.5324 191.033 50.4613 191.194C50.3903 191.355 50.3586 191.532 50.3692 191.709C50.3588 191.881 50.3885 192.053 50.4558 192.211C50.5232 192.369 50.6261 192.507 50.7559 192.615C51.0879 192.843 51.4826 192.952 51.8799 192.926C52.336 192.925 52.7864 192.821 53.1998 192.62Z" fill="#4A9B98"/>
<path d="M58.8248 186.03H60.6912L60.4747 188.438H60.5056C60.6855 187.663 61.1104 186.974 61.7121 186.48C62.3318 186.01 63.0853 185.771 63.8518 185.799C64.1005 185.799 64.3489 185.821 64.5942 185.864V187.794C64.3699 187.687 64.1347 187.606 63.893 187.553C63.6469 187.501 63.3965 187.474 63.1454 187.472C62.8202 187.458 62.4955 187.511 62.1908 187.63C61.886 187.749 61.6075 187.931 61.3718 188.164C61.1434 188.4 60.9648 188.684 60.8476 188.996C60.7304 189.308 60.6772 189.642 60.6912 189.977V194.305H58.8248V186.03Z" fill="#4A9B98"/>
<path d="M66.4916 184.667C66.3819 184.567 66.2946 184.443 66.2358 184.304C66.177 184.165 66.1481 184.015 66.1513 183.863C66.1494 183.714 66.1789 183.567 66.2377 183.432C66.2965 183.297 66.3832 183.176 66.4916 183.08C66.7224 182.862 67.0257 182.747 67.3371 182.758C67.6514 182.748 67.9574 182.863 68.193 183.08C68.3029 183.175 68.3909 183.295 68.4507 183.431C68.5104 183.566 68.5404 183.714 68.5384 183.863C68.5417 184.015 68.5124 184.166 68.4526 184.305C68.3929 184.445 68.3042 184.568 68.193 184.667C67.9574 184.884 67.6514 184.999 67.3371 184.989C67.0257 185 66.7224 184.885 66.4916 184.667ZM66.4142 186.029H68.2755V194.32H66.4142V186.029Z" fill="#4A9B98"/>
<path d="M72.5394 193.988C71.8598 193.642 71.2867 193.105 70.8844 192.438C70.4748 191.763 70.2617 190.979 70.2708 190.18C70.2584 189.383 70.4679 188.599 70.874 187.923C71.2779 187.256 71.8506 186.718 72.5291 186.367C73.2754 185.997 74.0919 185.805 74.9188 185.805C75.7458 185.805 76.5623 185.997 77.3085 186.367C77.9869 186.716 78.5582 187.255 78.9584 187.923C79.3591 188.601 79.5648 189.384 79.5513 190.18C79.5674 190.971 79.3657 191.749 78.9701 192.424C78.5745 193.098 78.0016 193.641 77.3189 193.988C76.5708 194.352 75.755 194.541 74.9291 194.541C74.1033 194.541 73.2875 194.352 72.5394 193.988ZM76.927 192.111C77.1729 191.856 77.3654 191.551 77.4923 191.215C77.6192 190.879 77.6778 190.52 77.6643 190.159C77.6765 189.802 77.6172 189.446 77.4903 189.113C77.3634 188.781 77.1716 188.48 76.927 188.228C76.6596 187.973 76.3458 187.775 76.0041 187.647C75.6624 187.519 75.2996 187.463 74.9369 187.483C74.5718 187.463 74.2065 187.519 73.8622 187.647C73.518 187.775 73.2015 187.972 72.9312 188.228C72.6866 188.48 72.4948 188.781 72.3679 189.113C72.241 189.446 72.1818 189.802 72.1939 190.159C72.1805 190.52 72.239 190.879 72.3659 191.215C72.4928 191.551 72.6853 191.856 72.9312 192.111C73.2015 192.367 73.518 192.565 73.8622 192.693C74.2065 192.821 74.5718 192.876 74.9369 192.856C75.2992 192.877 75.6618 192.822 76.0035 192.695C76.3452 192.568 76.6592 192.371 76.927 192.116V192.111Z" fill="#4A9B98"/>
<path d="M87.115 197.662C86.7654 197.587 86.421 197.488 86.0838 197.367V195.651C86.4203 195.787 86.7647 195.902 87.115 195.994C87.3997 196.069 87.6926 196.105 87.9863 196.101C88.2888 196.116 88.5866 196.019 88.8267 195.828C89.064 195.594 89.2322 195.294 89.3114 194.964L89.4506 194.428L85.4187 186.03H87.3625L90.2755 192.315L92.6214 186.03H94.5033L91.2706 194.305C90.8788 195.286 90.5746 195.989 90.3683 196.407C90.1651 196.845 89.8377 197.208 89.4303 197.446C89.0229 197.685 88.5549 197.788 88.0894 197.742C87.7629 197.747 87.4367 197.72 87.115 197.662Z" fill="#4A9B98"/>
<path d="M104.031 183.096H106.362L110.538 194.321H108.538L107.842 192.347H102.485L101.794 194.321H99.8035L104.031 183.096ZM107.218 190.631L105.155 184.893L103.093 190.631H107.218Z" fill="#4A9B98"/>
<path d="M111.26 197.592V196.037C111.494 196.11 111.737 196.148 111.982 196.149C112.143 196.159 112.305 196.127 112.451 196.056C112.598 195.984 112.725 195.877 112.822 195.742C113.045 195.329 113.144 194.857 113.106 194.385V186.03H114.972V194.337C115.014 195.211 114.806 196.079 114.374 196.83C114.15 197.145 113.853 197.395 113.51 197.557C113.167 197.718 112.79 197.786 112.415 197.753C112.024 197.759 111.635 197.705 111.26 197.592ZM113.183 184.668C113.074 184.567 112.987 184.443 112.929 184.304C112.872 184.165 112.844 184.015 112.848 183.863C112.845 183.715 112.874 183.568 112.931 183.433C112.989 183.298 113.075 183.177 113.183 183.08C113.416 182.863 113.721 182.748 114.034 182.758C114.348 182.749 114.654 182.864 114.89 183.08C114.999 183.176 115.087 183.296 115.147 183.431C115.207 183.567 115.237 183.714 115.235 183.863C115.238 184.016 115.209 184.167 115.149 184.306C115.089 184.445 115.001 184.568 114.89 184.668C114.654 184.884 114.348 184.999 114.034 184.989C113.721 185 113.416 184.885 113.183 184.668Z" fill="#4A9B98"/>
<path d="M119.251 193.988C118.571 193.643 117.997 193.106 117.596 192.438C117.19 191.76 116.98 190.974 116.993 190.175C116.981 189.378 117.19 188.594 117.596 187.917C117.999 187.251 118.572 186.715 119.251 186.367C119.998 185.997 120.814 185.805 121.641 185.805C122.468 185.805 123.285 185.997 124.031 186.367C124.709 186.716 125.281 187.255 125.681 187.923C126.081 188.601 126.287 189.384 126.274 190.18C126.287 190.973 126.082 191.754 125.682 192.429C125.281 193.104 124.703 193.645 124.015 193.988C123.269 194.35 122.456 194.537 121.633 194.537C120.81 194.537 119.997 194.35 119.251 193.988ZM123.639 192.111C123.885 191.856 124.077 191.551 124.204 191.215C124.331 190.879 124.39 190.52 124.376 190.159C124.389 189.802 124.329 189.446 124.202 189.113C124.075 188.781 123.884 188.48 123.639 188.228C123.076 187.747 122.37 187.484 121.641 187.484C120.912 187.484 120.206 187.747 119.643 188.228C119.399 188.48 119.207 188.781 119.08 189.113C118.953 189.446 118.894 189.802 118.906 190.159C118.893 190.52 118.951 190.879 119.078 191.215C119.205 191.551 119.397 191.856 119.643 192.111C120.206 192.593 120.912 192.856 121.641 192.856C122.37 192.856 123.076 192.593 123.639 192.111Z" fill="#4A9B98"/>
<path d="M128.279 183.096L130.146 182.726V194.32H128.279V183.096Z" fill="#4A9B98"/>
<path d="M134.404 193.988C133.725 193.642 133.152 193.105 132.749 192.438C132.342 191.762 132.13 190.978 132.141 190.18C132.129 189.383 132.338 188.599 132.744 187.923C133.148 187.256 133.721 186.718 134.399 186.367C135.146 185.997 135.962 185.805 136.789 185.805C137.616 185.805 138.432 185.997 139.179 186.367C139.857 186.716 140.428 187.255 140.829 187.923C141.229 188.601 141.435 189.384 141.422 190.18C141.437 190.971 141.235 191.75 140.838 192.425C140.442 193.099 139.868 193.642 139.184 193.988C138.436 194.352 137.62 194.541 136.794 194.541C135.968 194.541 135.153 194.352 134.404 193.988ZM138.792 192.111C139.039 191.857 139.232 191.552 139.359 191.216C139.486 190.88 139.544 190.52 139.529 190.159C139.543 189.801 139.484 189.445 139.357 189.113C139.23 188.78 139.038 188.479 138.792 188.228C138.522 187.971 138.204 187.773 137.859 187.646C137.514 187.519 137.147 187.465 136.781 187.488C136.416 187.468 136.051 187.524 135.707 187.652C135.362 187.78 135.046 187.978 134.776 188.234C134.531 188.485 134.339 188.786 134.212 189.119C134.085 189.451 134.026 189.807 134.038 190.164C134.025 190.525 134.084 190.885 134.21 191.221C134.337 191.557 134.53 191.862 134.776 192.116C135.046 192.372 135.362 192.57 135.707 192.698C136.051 192.826 136.416 192.882 136.781 192.862C137.147 192.884 137.514 192.83 137.86 192.702C138.205 192.574 138.522 192.375 138.792 192.116V192.111Z" fill="#4A9B98"/>
<path d="M144.675 193.709C144.159 193.173 143.912 192.267 143.912 191.028V187.73H142.674V186.351H142.798C143.253 186.339 143.686 186.148 144.01 185.815C144.343 185.443 144.555 184.973 144.618 184.469L144.649 184.324H145.773V186.04H149.243V187.73H145.773V190.84C145.725 191.379 145.86 191.918 146.155 192.363C146.323 192.529 146.523 192.654 146.742 192.732C146.96 192.81 147.193 192.838 147.423 192.814C148.095 192.791 148.76 192.667 149.398 192.444V194.176C148.651 194.412 147.874 194.53 147.093 194.524C145.986 194.524 145.18 194.253 144.675 193.709Z" fill="#4A9B98"/>
<path d="M151.656 193.854C151.401 193.618 151.2 193.325 151.068 192.997C150.936 192.67 150.876 192.316 150.893 191.961C150.874 191.595 150.94 191.23 151.087 190.896C151.233 190.563 151.455 190.271 151.733 190.046C152.444 189.55 153.292 189.31 154.146 189.365H156.966C156.979 189.096 156.933 188.827 156.832 188.578C156.731 188.329 156.578 188.107 156.384 187.928C155.904 187.574 155.321 187.402 154.734 187.44C153.588 187.485 152.463 187.781 151.434 188.309V186.544C152.586 186.079 153.808 185.829 155.043 185.804C156.06 185.737 157.063 186.074 157.848 186.748C158.188 187.102 158.452 187.527 158.621 187.995C158.791 188.463 158.863 188.963 158.833 189.462V194.321H156.966L157.168 191.913H157.137C156.945 192.69 156.507 193.377 155.894 193.865C155.266 194.322 154.511 194.554 153.744 194.524C152.993 194.573 152.25 194.334 151.656 193.854ZM155.595 192.621C155.998 192.441 156.352 192.161 156.626 191.805C156.869 191.49 157.001 191.099 157.003 190.695V190.47H154.311C153.895 190.443 153.482 190.553 153.131 190.786C152.995 190.893 152.886 191.033 152.815 191.194C152.744 191.355 152.713 191.532 152.723 191.709C152.713 191.881 152.742 192.053 152.81 192.211C152.877 192.369 152.98 192.508 153.11 192.615C153.442 192.844 153.837 192.953 154.234 192.926C154.704 192.932 155.169 192.827 155.595 192.621Z" fill="#4A9B98"/>
<path d="M161.225 186.03H163.076L162.865 188.438H162.896C163.074 187.661 163.502 186.971 164.107 186.48C164.727 186.01 165.481 185.771 166.247 185.799C166.496 185.799 166.744 185.821 166.989 185.864V187.794C166.765 187.686 166.53 187.605 166.288 187.553C166.042 187.501 165.792 187.474 165.541 187.472C165.216 187.458 164.891 187.512 164.586 187.631C164.281 187.749 164.003 187.931 163.767 188.164C163.535 188.401 163.353 188.687 163.234 189.002C163.115 189.317 163.061 189.655 163.076 189.993V194.321H161.215L161.225 186.03Z" fill="#4A9B98"/>
<path d="M168.887 184.668C168.777 184.567 168.69 184.444 168.631 184.305C168.572 184.166 168.543 184.015 168.547 183.863C168.545 183.715 168.574 183.568 168.633 183.432C168.692 183.297 168.778 183.177 168.887 183.08C169.118 182.863 169.421 182.748 169.732 182.758C170.047 182.749 170.353 182.864 170.588 183.08C170.698 183.176 170.786 183.296 170.846 183.431C170.906 183.567 170.936 183.714 170.934 183.863C170.937 184.015 170.908 184.167 170.848 184.306C170.788 184.445 170.699 184.568 170.588 184.668C170.353 184.884 170.047 184.999 169.732 184.989C169.421 185 169.118 184.884 168.887 184.668ZM168.809 186.03H170.676V194.321H168.809V186.03Z" fill="#4A9B98"/>
<path d="M174.935 193.988C174.257 193.639 173.684 193.103 173.28 192.438C172.873 191.76 172.663 190.974 172.676 190.175C172.664 189.378 172.873 188.593 173.28 187.917C173.684 187.252 174.257 186.716 174.935 186.367C175.681 185.992 176.503 185.808 177.332 185.831C178.156 185.809 178.973 185.993 179.714 186.367C180.392 186.716 180.964 187.255 181.364 187.923C181.765 188.601 181.97 189.384 181.957 190.18C181.972 190.971 181.769 191.751 181.371 192.426C180.974 193.1 180.399 193.643 179.714 193.988C178.971 194.358 178.156 194.542 177.332 194.524C176.504 194.542 175.683 194.358 174.935 193.988ZM179.322 192.111C179.574 191.86 179.772 191.557 179.905 191.222C180.037 190.887 180.1 190.526 180.09 190.164C180.103 189.806 180.043 189.45 179.915 189.117C179.788 188.785 179.594 188.484 179.348 188.234C178.786 187.751 178.081 187.488 177.353 187.488C176.625 187.488 175.919 187.751 175.357 188.234C175.111 188.484 174.918 188.785 174.79 189.117C174.662 189.45 174.603 189.806 174.615 190.164C174.601 190.525 174.66 190.886 174.788 191.222C174.916 191.558 175.11 191.863 175.357 192.116C175.919 192.598 176.625 192.862 177.353 192.862C178.081 192.862 178.786 192.598 179.348 192.116L179.322 192.111Z" fill="#4A9B98"/>
</g>
<defs>
<clipPath id="clip0_29_3">
<rect width="181.806" height="58.964" fill="white" transform="translate(0.151215 182.726)"/>
</clipPath>
</defs>
</svg>
