<svg width="55" height="55" viewBox="0 0 55 55" fill="none" xmlns="http://www.w3.org/2000/svg">
<path d="M53.9611 22C54.2544 22 54.508 22.2047 54.5569 22.4919C54.8441 24.0992 55 25.8286 55 27.5C55.0084 34.2675 52.5127 40.7988 47.9936 45.8364C47.8886 45.9527 47.7425 46.0235 47.5861 46.0338C47.4298 46.044 47.2756 45.9929 47.1564 45.8914L39.6855 39.5664C39.6212 39.511 39.5687 39.4432 39.5312 39.367C39.4937 39.2908 39.4721 39.2078 39.4675 39.123C39.4629 39.0383 39.4756 38.9534 39.5046 38.8737C39.5337 38.7939 39.5786 38.7208 39.6367 38.6589C41.141 37.0212 42.2988 35.0964 43.0405 33H28.1111C27.949 33 27.7936 32.9356 27.679 32.821C27.5644 32.7064 27.5 32.5509 27.5 32.3889V22.6111C27.5 22.275 27.775 22 28.1111 22H53.9611ZM35.0564 42.1666C35.1664 42.1113 35.29 42.0888 35.4124 42.1018C35.5349 42.1148 35.651 42.1628 35.7469 42.24L43.5936 48.8797C43.6636 48.938 43.7194 49.0115 43.7567 49.0946C43.794 49.1777 43.8118 49.2682 43.8089 49.3592C43.8059 49.4503 43.7823 49.5394 43.7397 49.62C43.6971 49.7005 43.6367 49.7702 43.563 49.8239C38.8873 53.1976 33.2658 55.0091 27.5 55C22.917 55.0004 18.4067 53.8554 14.3788 51.6691C10.351 49.4828 6.93336 46.3245 4.43667 42.4814C4.35493 42.3542 4.32401 42.201 4.35005 42.0521C4.37609 41.9032 4.45719 41.7696 4.57723 41.6777L12.3536 35.6828C12.4251 35.6293 12.5071 35.5916 12.5942 35.5722C12.6813 35.5527 12.7716 35.5519 12.859 35.5697C12.9465 35.5876 13.0292 35.6238 13.1016 35.676C13.1741 35.7281 13.2347 35.795 13.2794 35.8722C15.4184 39.5045 18.8664 42.1805 22.9159 43.351C26.9654 44.5215 31.3094 44.0977 35.0564 42.1666ZM11.2444 30.3294C11.2657 30.4414 11.2553 30.5572 11.2142 30.6635C11.1732 30.7699 11.1032 30.8627 11.0122 30.9314L2.65529 37.3694C2.58153 37.4273 2.49522 37.4671 2.40331 37.4855C2.31139 37.5039 2.21642 37.5005 2.12606 37.4755C2.0357 37.4506 1.95246 37.4047 1.88304 37.3417C1.81362 37.2787 1.75997 37.2003 1.7264 37.1128C0.581994 34.0372 -0.00268797 30.7816 9.28972e-06 27.5C9.28972e-06 23.98 0.663064 20.6128 1.87001 17.5175C1.9039 17.4322 1.95695 17.3558 2.02506 17.2943C2.09317 17.2327 2.17452 17.1876 2.26282 17.1625C2.35112 17.1374 2.44401 17.133 2.53432 17.1495C2.62462 17.166 2.70992 17.203 2.78362 17.2578L11.1314 23.3811C11.33 23.5247 11.4217 23.7783 11.3697 24.0167C10.921 26.093 10.8805 28.2365 11.2444 30.3294ZM12.6714 18.8253C12.9647 19.0392 13.3772 18.9536 13.5728 18.648C15.0629 16.3041 17.1206 14.3742 19.5552 13.0372C21.9898 11.7003 24.7225 10.9995 27.5 11C31.341 10.9987 35.0606 12.3449 38.0111 14.8042C38.1302 14.9051 38.2827 14.9579 38.4387 14.9522C38.5947 14.9466 38.7429 14.8829 38.8544 14.7736L45.7783 7.84667C45.8363 7.78898 45.882 7.72007 45.9124 7.64416C45.9429 7.56824 45.9576 7.4869 45.9556 7.40512C45.9536 7.32334 45.935 7.24282 45.9008 7.16848C45.8666 7.09415 45.8177 7.02756 45.7569 6.97278C40.7379 2.47914 34.2367 -0.00379551 27.5 6.1827e-06C22.9767 -0.00302833 18.5226 1.11101 14.5333 3.24318C10.544 5.37535 7.14296 8.45966 4.63223 12.2222C4.54781 12.3515 4.51628 12.5082 4.54414 12.66C4.57201 12.8119 4.65714 12.9472 4.78195 13.0381L12.6714 18.8253Z" fill="#4A9B98"/>
</svg>
