<svg width="61" height="61" viewBox="0 0 61 61" fill="none" xmlns="http://www.w3.org/2000/svg">
<path d="M33.6354 0C37.0665 0.00914978 38.808 0.0274493 40.3116 0.0701483L40.9032 0.0914977C41.5864 0.115897 42.2604 0.146396 43.0747 0.182995C46.3197 0.335492 48.5339 0.84788 50.4767 1.60121C52.4896 2.37589 54.1853 3.42507 55.881 5.11778C57.4325 6.64192 58.6325 8.48633 59.3975 10.5222C60.1508 12.465 60.6632 14.6793 60.8157 17.9275C60.8523 18.7387 60.8828 19.4128 60.9072 20.099L60.9255 20.6907C60.9712 22.1913 60.9895 23.9328 60.9956 27.3639L60.9987 29.6392V33.6346C61.0061 35.8592 60.9827 38.0838 60.9285 40.3078L60.9102 40.8995C60.8858 41.5857 60.8553 42.2598 60.8187 43.0711C60.6662 46.3192 60.1478 48.5304 59.3975 50.4763C58.6325 52.5122 57.4325 54.3566 55.881 55.8807C54.3569 57.4322 52.5125 58.6323 50.4767 59.3973C48.5339 60.1506 46.3197 60.663 43.0747 60.8155L40.9032 60.907L40.3116 60.9253C38.808 60.968 37.0665 60.9894 33.6354 60.9955L31.3603 60.9985H27.368C25.1424 61.0064 22.9168 60.983 20.6919 60.9284L20.1002 60.9101C19.3762 60.8827 18.6524 60.8511 17.9287 60.8155C14.6837 60.663 12.4695 60.1506 10.5237 59.3973C8.48894 58.6319 6.64565 57.4319 5.12243 55.8807C3.56989 54.3569 2.36875 52.5125 1.6029 50.4763C0.849592 48.5335 0.337218 46.3192 0.184725 43.0711L0.09323 40.8995L0.0779812 40.3078C0.0217605 38.0839 -0.00365766 35.8592 0.00173474 33.6346V27.3639C-0.00670691 25.1393 0.015661 22.9147 0.0688316 20.6907L0.0901804 20.099C0.114579 19.4128 0.145078 18.7387 0.181676 17.9275C0.334168 14.6793 0.846542 12.4681 1.59985 10.5222C2.36748 8.4855 3.57074 6.64102 5.12548 5.11778C6.64782 3.56704 8.49003 2.36697 10.5237 1.60121C12.4695 0.84788 14.6806 0.335492 17.9287 0.182995C18.74 0.146396 19.4171 0.115897 20.1002 0.0914977L20.6919 0.073198C22.9158 0.0190093 25.1404 -0.00437572 27.365 0.0030497L33.6354 0ZM30.5002 15.2496C26.4558 15.2496 22.5771 16.8563 19.7174 19.7161C16.8576 22.576 15.251 26.4548 15.251 30.4993C15.251 34.5437 16.8576 38.4225 19.7174 41.2824C22.5771 44.1422 26.4558 45.7489 30.5002 45.7489C34.5445 45.7489 38.4232 44.1422 41.283 41.2824C44.1428 38.4225 45.7494 34.5437 45.7494 30.4993C45.7494 26.4548 44.1428 22.576 41.283 19.7161C38.4232 16.8563 34.5445 15.2496 30.5002 15.2496ZM30.5002 21.3495C31.7017 21.3493 32.8915 21.5858 34.0017 22.0454C35.1118 22.505 36.1206 23.1788 36.9703 24.0283C37.8201 24.8778 38.4942 25.8864 38.9542 26.9964C39.4142 28.1064 39.6511 29.2962 39.6513 30.4977C39.6515 31.6993 39.415 32.8891 38.9554 33.9993C38.4958 35.1095 37.822 36.1183 36.9725 36.9681C36.123 37.8178 35.1145 38.492 34.0045 38.952C32.8945 39.412 31.7048 39.6488 30.5032 39.649C28.0766 39.649 25.7494 38.685 24.0335 36.9691C22.3177 35.2532 21.3537 32.9259 21.3537 30.4993C21.3537 28.0726 22.3177 25.7453 24.0335 24.0294C25.7494 22.3135 28.0766 21.3495 30.5032 21.3495M46.5149 10.6747C45.5038 10.6747 44.5342 11.0764 43.8192 11.7914C43.1043 12.5063 42.7026 13.476 42.7026 14.4871C42.7026 15.4983 43.1043 16.468 43.8192 17.1829C44.5342 17.8979 45.5038 18.2996 46.5149 18.2996C47.526 18.2996 48.4957 17.8979 49.2106 17.1829C49.9256 16.468 50.3272 15.4983 50.3272 14.4871C50.3272 13.476 49.9256 12.5063 49.2106 11.7914C48.4957 11.0764 47.526 10.6747 46.5149 10.6747Z" fill="#4A9B98"/>
</svg>
